<svg id="Group_962" data-name="Group 962" xmlns="http://www.w3.org/2000/svg" width="54.738" height="26.515" viewBox="0 0 54.738 26.515">
  <g id="Group_508" data-name="Group 508" transform="translate(0 7.356)">
    <path id="Path_6428" data-name="Path 6428" d="M37.9,209.79v-2.053l4.927-3.695a1.368,1.368,0,0,0-.341-2.376l-4.586-1.72v-6.578A1.368,1.368,0,0,0,36.527,192H17.368A1.368,1.368,0,0,0,16,193.368V209.79a1.368,1.368,0,0,0,1.368,1.368H36.527A1.368,1.368,0,0,0,37.9,209.79Zm-2.737-2.737v1.368H18.737V194.737H35.159V200.9a1.369,1.369,0,0,0,.888,1.281l3.135,1.175-3.475,2.606A1.368,1.368,0,0,0,35.159,207.053Z" transform="translate(-16 -192)" fill="#fff"/>
    <path id="Path_6429" data-name="Path 6429" d="M48,248h2.737v4.105H48Z" transform="translate(-42.526 -238.421)" fill="#fff"/>
    <path id="Path_6430" data-name="Path 6430" d="M72,224h2.737v8.211H72Z" transform="translate(-62.421 -218.526)" fill="#fff"/>
    <path id="Path_6431" data-name="Path 6431" d="M96,240h2.737v5.474H96Z" transform="translate(-82.315 -231.789)" fill="#fff"/>
  </g>
  <g id="Group_507" data-name="Group 507" transform="translate(27.37 0)">
    <path id="Path_6432" data-name="Path 6432" d="M362,96H342.842a1.368,1.368,0,0,0-1.368,1.368v2.053l-4.926,3.695a1.368,1.368,0,0,0,.341,2.376l4.586,1.72v6.578a1.369,1.369,0,0,0,1.368,1.368H362a1.369,1.369,0,0,0,1.368-1.368V97.368A1.369,1.369,0,0,0,362,96Zm-1.368,16.422H344.21v-6.158a1.368,1.368,0,0,0-.888-1.281l-3.135-1.176,3.475-2.606a1.369,1.369,0,0,0,.547-1.095V98.737h16.422Z" transform="translate(-335.999 -96)" fill="#fff"/>
    <path id="Path_6433" data-name="Path 6433" d="M399.416,128.693l1.769,1.769a1.368,1.368,0,0,0,2.062-.147l4.105-5.474-2.19-1.642L402,127.412l-1.621-1.621a1.368,1.368,0,0,0-1.935,0l-4.105,4.105,1.935,1.935Z" transform="translate(-384.363 -118.547)" fill="#fff"/>
  </g>
</svg>
