<svg xmlns="http://www.w3.org/2000/svg" width="41.287" height="41.238" viewBox="0 0 41.287 41.238">
  <g id="Group_961" data-name="Group 961" transform="translate(0 0)">
    <path id="Path_6445" data-name="Path 6445" d="M5.631,0a5.655,5.655,0,1,0,5.631,5.655A5.648,5.648,0,0,0,5.631,0Zm0,8.4A2.743,2.743,0,1,1,8.349,5.655,2.735,2.735,0,0,1,5.631,8.4Z" transform="translate(41.286 29.976) rotate(90)" fill="#fff"/>
    <path id="Path_6443" data-name="Path 6443" d="M10.621.428a1.458,1.458,0,0,0-2.063,0L5.525,3.462,2.491.428A1.459,1.459,0,0,0,.428,2.491L3.462,5.525.428,8.558a1.456,1.456,0,0,0,1.032,2.488,1.482,1.482,0,0,0,1.031-.425L5.525,7.588l3.034,3.034a1.461,1.461,0,0,0,1.032.425,1.482,1.482,0,0,0,1.031-.425,1.457,1.457,0,0,0,0-2.063L7.588,5.525l3.034-3.034A1.457,1.457,0,0,0,10.621.428Z" transform="translate(11.046 29.976) rotate(90)" fill="#fff"/>
    <path id="Path_6446" data-name="Path 6446" d="M10.621.428a1.458,1.458,0,0,0-2.063,0L5.525,3.462,2.491.428A1.459,1.459,0,0,0,.428,2.491L3.462,5.525.428,8.558a1.456,1.456,0,0,0,1.032,2.488,1.482,1.482,0,0,0,1.031-.425L5.525,7.588l3.034,3.034a1.461,1.461,0,0,0,1.032.425,1.482,1.482,0,0,0,1.031-.425,1.457,1.457,0,0,0,0-2.063L7.588,5.525l3.034-3.034A1.457,1.457,0,0,0,10.621.428Z" transform="translate(26.034 29.976) rotate(90)" fill="#fff"/>
    <path id="Path_6441" data-name="Path 6441" d="M5.631,0a5.655,5.655,0,1,0,5.631,5.655A5.648,5.648,0,0,0,5.631,0Zm0,8.4A2.743,2.743,0,1,1,8.349,5.655,2.735,2.735,0,0,1,5.631,8.4Z" transform="translate(26.298 14.988) rotate(90)" fill="#fff"/>
    <path id="Path_6442" data-name="Path 6442" d="M8.558,10.621a1.461,1.461,0,0,0,1.031.425,1.482,1.482,0,0,0,1.031-.425,1.457,1.457,0,0,0,0-2.063L7.588,5.525l3.034-3.034A1.459,1.459,0,0,0,8.558.428L5.525,3.462,2.491.428A1.459,1.459,0,0,0,.428,2.491L3.462,5.525.428,8.558a1.456,1.456,0,0,0,1.032,2.488,1.482,1.482,0,0,0,1.032-.425L5.525,7.588Z" transform="translate(41.022 14.988) rotate(90)" fill="#fff"/>
    <path id="Path_6444" data-name="Path 6444" d="M10.621.428a1.458,1.458,0,0,0-2.063,0L5.525,3.462,2.491.428A1.459,1.459,0,0,0,.428,2.491L3.462,5.525.428,8.558a1.456,1.456,0,0,0,1.032,2.488,1.482,1.482,0,0,0,1.032-.425L5.525,7.588l3.034,3.034a1.461,1.461,0,0,0,1.032.425,1.482,1.482,0,0,0,1.031-.425,1.458,1.458,0,0,0,0-2.063L7.588,5.525l3.034-3.034A1.48,1.48,0,0,0,10.621.428Z" transform="translate(11.046 14.988) rotate(90)" fill="#fff"/>
    <path id="Path_6447" data-name="Path 6447" d="M5.631,0a5.655,5.655,0,1,0,5.631,5.655A5.648,5.648,0,0,0,5.631,0Zm0,8.4A2.743,2.743,0,1,1,8.349,5.655,2.735,2.735,0,0,1,5.631,8.4Z" transform="translate(11.31 0) rotate(90)" fill="#fff"/>
    <path id="Path_6448" data-name="Path 6448" d="M10.621.428a1.458,1.458,0,0,0-2.063,0L5.525,3.462,2.491.428A1.459,1.459,0,0,0,.428,2.491L3.462,5.525.428,8.558a1.456,1.456,0,0,0,1.032,2.488,1.482,1.482,0,0,0,1.032-.425L5.525,7.588l3.034,3.034a1.461,1.461,0,0,0,1.032.425,1.482,1.482,0,0,0,1.031-.425,1.458,1.458,0,0,0,0-2.063L7.588,5.525l3.034-3.034A1.48,1.48,0,0,0,10.621.428Z" transform="translate(26.034 0) rotate(90)" fill="#fff"/>
    <path id="Path_6449" data-name="Path 6449" d="M10.621.428a1.458,1.458,0,0,0-2.063,0L5.525,3.462,2.491.428A1.459,1.459,0,0,0,.428,2.491L3.462,5.525.428,8.558a1.456,1.456,0,0,0,1.032,2.488,1.482,1.482,0,0,0,1.032-.425L5.525,7.588l3.034,3.034a1.461,1.461,0,0,0,1.032.425,1.482,1.482,0,0,0,1.031-.425,1.458,1.458,0,0,0,0-2.063L7.588,5.525l3.034-3.034A1.48,1.48,0,0,0,10.621.428Z" transform="translate(41.023 0) rotate(90)" fill="#fff"/>
  </g>
</svg>
