<svg id="Group_963" data-name="Group 963" xmlns="http://www.w3.org/2000/svg" width="56.041" height="32.891" viewBox="0 0 56.041 32.891">
  <g id="Group_504" data-name="Group 504" transform="translate(21.24 2.108)">
    <path id="Path_6410" data-name="Path 6410" d="M16.208,20.916A7.079,7.079,0,0,1,9,13.708,7.079,7.079,0,0,1,16.208,6.5a7.079,7.079,0,0,1,7.208,7.208A7.079,7.079,0,0,1,16.208,20.916Zm0-12.013a4.805,4.805,0,1,0,4.805,4.805A4.819,4.819,0,0,0,16.208,8.9Z" transform="translate(-9 -6.5)" fill="#fff" stroke="#fff" stroke-width="1.5"/>
  </g>
  <g id="Group_505" data-name="Group 505" transform="translate(15.233 20.128)">
    <path id="Path_6411" data-name="Path 6411" d="M31.728,26.013a1.135,1.135,0,0,1-1.2-1.2V20.007a3.7,3.7,0,0,0-3.6-3.6H12.507a3.7,3.7,0,0,0-3.6,3.6v4.805a1.135,1.135,0,0,1-1.2,1.2,1.135,1.135,0,0,1-1.2-1.2V20.007A5.948,5.948,0,0,1,12.507,14H26.923a5.948,5.948,0,0,1,6.007,6.007v4.805A1.135,1.135,0,0,1,31.728,26.013Z" transform="translate(-6.5 -14)" fill="#fff" stroke="#fff" stroke-width="1.5"/>
  </g>
  <g id="expand" transform="translate(0)">
    <path id="Path_6414" data-name="Path 6414" d="M20.112,34.382l-9.505,9.505v-3.37a1.3,1.3,0,0,0-2.607,0v6.517a1.3,1.3,0,0,0,1.3,1.3H15.82a1.3,1.3,0,0,0,0-2.607H12.45l9.505-9.505a1.3,1.3,0,0,0-1.843-1.843Z" transform="translate(-8 -21.619)" fill="#fff"/>
    <path id="Path_6415" data-name="Path 6415" d="M47.033,8H40.517a1.3,1.3,0,0,0,0,2.607h3.37l-9.505,9.505a1.3,1.3,0,1,0,1.843,1.843L45.73,12.45v3.37a1.3,1.3,0,1,0,2.607,0V9.3A1.3,1.3,0,0,0,47.033,8Z" transform="translate(7.706 -8)" fill="#fff"/>
  </g>
</svg>
