<svg id="Group_964" data-name="Group 964" xmlns="http://www.w3.org/2000/svg" width="51.775" height="51.776" viewBox="0 0 51.775 51.776">
  <g id="Group_488" data-name="Group 488" transform="translate(13.807 10.355)">
    <g id="Group_487" data-name="Group 487" transform="translate(0 0)">
      <path id="Path_6400" data-name="Path 6400" d="M187.726,60a1.726,1.726,0,1,0,1.726,1.726A1.726,1.726,0,0,0,187.726,60Z" transform="translate(-186 -60)" fill="#fff"/>
    </g>
  </g>
  <g id="Group_490" data-name="Group 490" transform="translate(20.6 13.807)">
    <g id="Group_489" data-name="Group 489" transform="translate(0 0)">
      <path id="Path_6401" data-name="Path 6401" d="M230.649,90.355a1.726,1.726,0,1,1,0-3.452,2.771,2.771,0,0,1,1.867.9,1.726,1.726,0,1,0,2.4-2.481,6.667,6.667,0,0,0-2.541-1.589v-2.01a1.726,1.726,0,1,0-3.452,0v2.023a5.177,5.177,0,0,0,1.726,10.058,1.726,1.726,0,0,1,0,3.452,3.123,3.123,0,0,1-2.241-1.306,1.726,1.726,0,0,0-2.642,2.221,7.156,7.156,0,0,0,3.157,2.248v2.014a1.726,1.726,0,1,0,3.452,0v-2.023a5.177,5.177,0,0,0-1.726-10.058Z" transform="translate(-225.361 -80)" fill="#fff"/>
    </g>
  </g>
  <g id="Group_496" data-name="Group 496" transform="translate(0 0)">
    <g id="Group_495" data-name="Group 495" transform="translate(0)">
      <path id="Path_6404" data-name="Path 6404" d="M131.888,0a25.888,25.888,0,1,0,25.888,25.888A25.917,25.917,0,0,0,131.888,0Zm0,48.324a22.436,22.436,0,1,1,22.436-22.436A22.461,22.461,0,0,1,131.888,48.324Z" transform="translate(-106)" fill="#fff"/>
    </g>
  </g>
  <g id="Group_498" data-name="Group 498" transform="translate(6.903 6.909)">
    <g id="Group_497" data-name="Group 497" transform="translate(0 0)">
      <path id="Path_6405" data-name="Path 6405" d="M176.9,44.232a19.115,19.115,0,0,0-16.123-3.753,1.726,1.726,0,1,0,.727,3.374,15.679,15.679,0,0,1,13.227,3.064,15.53,15.53,0,1,1-23.446,4.76,1.726,1.726,0,1,0-3.041-1.632A18.986,18.986,0,1,0,176.9,44.232Z" transform="translate(-146 -40.031)" fill="#fff"/>
    </g>
  </g>
</svg>
