<svg id="share" xmlns="http://www.w3.org/2000/svg" width="41.826" height="41.92" viewBox="0 0 41.826 41.92">
  <path id="Path_6412" data-name="Path 6412" d="M34.813,26.615a7.522,7.522,0,0,0-6.083,3.08l-6.305-3.781a11.706,11.706,0,0,0,.257-9.214l6.348-4.081A7.554,7.554,0,0,0,42.368,7.657a7.563,7.563,0,1,0-15.126,0,8.005,8.005,0,0,0,.214,1.831l-6.536,4.2a11.516,11.516,0,1,0-8.889,18.881,11.424,11.424,0,0,0,8.453-3.739l6.878,4.124a8.272,8.272,0,0,0-.111,1.309,7.563,7.563,0,1,0,7.563-7.648Zm0-23.056a4.184,4.184,0,1,1-4.1,4.183A4.161,4.161,0,0,1,34.813,3.559ZM12.023,29.1A8.1,8.1,0,1,1,20.03,21,8.055,8.055,0,0,1,12.023,29.1Zm22.791,9.436a4.184,4.184,0,1,1,4.1-4.183A4.161,4.161,0,0,1,34.813,38.541Z" transform="translate(-0.55 0)" fill="#fff"/>
  <path id="Path_6413" data-name="Path 6413" d="M34.813,26.615a7.522,7.522,0,0,0-6.083,3.08l-6.305-3.781a11.706,11.706,0,0,0,.257-9.214l6.348-4.081A7.554,7.554,0,0,0,42.368,7.657a7.563,7.563,0,1,0-15.126,0,8.005,8.005,0,0,0,.214,1.831l-6.536,4.2a11.516,11.516,0,1,0-8.889,18.881,11.424,11.424,0,0,0,8.453-3.739l6.878,4.124a8.272,8.272,0,0,0-.111,1.309,7.563,7.563,0,1,0,7.563-7.648Zm0-23.056a4.184,4.184,0,1,1-4.1,4.183A4.161,4.161,0,0,1,34.813,3.559ZM12.023,29.1A8.1,8.1,0,1,1,20.03,21,8.055,8.055,0,0,1,12.023,29.1Zm22.791,9.436a4.184,4.184,0,1,1,4.1-4.183A4.161,4.161,0,0,1,34.813,38.541Z" transform="translate(-0.55 0)" fill="#fff"/>
</svg>
