<svg xmlns="http://www.w3.org/2000/svg" width="71.712" height="109.971" viewBox="0 0 71.712 109.971">
  <g id="Group_349" data-name="Group 349" transform="translate(-204.4 -141.4)">
    <path id="Path_428" data-name="Path 428" d="M214.948,144.96a3.41,3.41,0,0,0-.593-.678,2.9,2.9,0,0,0-.819-.452,2.752,2.752,0,0,0-.961-.17,2.945,2.945,0,0,0-1.554.367,3.09,3.09,0,0,0-1.045.961,4.169,4.169,0,0,0-.565,1.356,7.15,7.15,0,0,0-.17,1.582,7.015,7.015,0,0,0,.17,1.526,4.285,4.285,0,0,0,.565,1.328,2.778,2.778,0,0,0,1.045.932,3.238,3.238,0,0,0,1.554.367,2.554,2.554,0,0,0,1.95-.763,3.342,3.342,0,0,0,.848-2.006H218a6.157,6.157,0,0,1-.537,2.091,5.028,5.028,0,0,1-1.13,1.582,4.927,4.927,0,0,1-1.667.989,6.124,6.124,0,0,1-2.091.339,6.58,6.58,0,0,1-2.543-.48,5.91,5.91,0,0,1-1.921-1.356,6.035,6.035,0,0,1-1.187-2.034,7.227,7.227,0,0,1-.424-2.515,7.552,7.552,0,0,1,.424-2.571,6.462,6.462,0,0,1,1.187-2.063,5.332,5.332,0,0,1,1.921-1.385,6.194,6.194,0,0,1,2.543-.509,6.08,6.08,0,0,1,1.921.283,5.154,5.154,0,0,1,1.611.848,4.681,4.681,0,0,1,1.187,1.385,5.132,5.132,0,0,1,.593,1.893h-2.628a2.187,2.187,0,0,0-.311-.848" transform="translate(-1.507 0)" fill="#fff"/>
    <path id="Path_429" data-name="Path 429" d="M252.98,160.464a2.151,2.151,0,0,0,1.582.537,2.053,2.053,0,0,0,1.272-.367,1.5,1.5,0,0,0,.65-.791h2.147a4.035,4.035,0,0,1-1.582,2.289,4.748,4.748,0,0,1-2.6.678,5.023,5.023,0,0,1-1.893-.339,3.914,3.914,0,0,1-1.441-.961,4.017,4.017,0,0,1-.9-1.5,5.125,5.125,0,0,1-.311-1.893,4.977,4.977,0,0,1,.339-1.865,4.785,4.785,0,0,1,.932-1.5,3.979,3.979,0,0,1,1.441-.989,4.486,4.486,0,0,1,1.865-.367,4.011,4.011,0,0,1,1.978.452,3.747,3.747,0,0,1,1.385,1.187,5.182,5.182,0,0,1,.791,1.7,5.753,5.753,0,0,1,.17,1.978h-6.442a2.636,2.636,0,0,0,.622,1.752m2.8-4.69a1.73,1.73,0,0,0-1.328-.48,2.132,2.132,0,0,0-.989.2,2.782,2.782,0,0,0-.622.48,2.661,2.661,0,0,0-.339.622,2.7,2.7,0,0,0-.113.593h3.984a2.849,2.849,0,0,0-.593-1.413" transform="translate(-32.644 -8.609)" fill="#fff"/>
    <path id="Path_430" data-name="Path 430" d="M287.817,153.826v1.667h.028a2.832,2.832,0,0,1,1.13-1.356,4.382,4.382,0,0,1,.819-.4,3.185,3.185,0,0,1,.9-.141,1.919,1.919,0,0,1,.537.085v2.289a1.71,1.71,0,0,0-.424-.057,2.586,2.586,0,0,0-.452-.028,2.681,2.681,0,0,0-1.13.226,2.059,2.059,0,0,0-.763.622,2.016,2.016,0,0,0-.4.9,4.641,4.641,0,0,0-.113,1.13v3.984H285.5v-8.929Z" transform="translate(-58.185 -8.753)" fill="#fff"/>
    <path id="Path_431" data-name="Path 431" d="M314.364,147.441v1.639h-1.808v4.436a1.151,1.151,0,0,0,.2.819,1.2,1.2,0,0,0,.819.2,1.738,1.738,0,0,0,.4-.028,1.655,1.655,0,0,0,.367-.057v1.893a5.066,5.066,0,0,1-.678.057c-.254,0-.509.028-.735.028a6.613,6.613,0,0,1-1.074-.085,2.29,2.29,0,0,1-.9-.311,1.725,1.725,0,0,1-.622-.65,2.417,2.417,0,0,1-.226-1.074v-5.284h-1.5v-1.639h1.5V144.7h2.458v2.684h1.808Z" transform="translate(-74.758 -2.368)" fill="#fff"/>
    <path id="Path_432" data-name="Path 432" d="M333.4,142.3h2.458v2.034H333.4Zm2.458,12.348H333.4v-8.929h2.458Z" transform="translate(-92.55 -0.646)" fill="#fff"/>
    <path id="Path_433" data-name="Path 433" d="M345.7,147.429v-1.639h1.469v-.678a2.735,2.735,0,0,1,.735-1.95,3.037,3.037,0,0,1,2.26-.763,5,5,0,0,1,.65.028c.226.028.424.028.65.057v1.837c-.283-.028-.593-.057-.9-.057a.958.958,0,0,0-.706.226,1.149,1.149,0,0,0-.226.791v.537h1.7v1.639h-1.7v7.262h-2.458v-7.29Z" transform="translate(-101.375 -0.717)" fill="#fff"/>
    <path id="Path_434" data-name="Path 434" d="M370.8,142.3h2.458v2.034H370.8Zm2.458,12.348H370.8v-8.929h2.458Z" transform="translate(-119.383 -0.646)" fill="#fff"/>
    <path id="Path_435" data-name="Path 435" d="M385.38,160.464a2.15,2.15,0,0,0,1.582.537,2.054,2.054,0,0,0,1.272-.367,1.5,1.5,0,0,0,.65-.791h2.147a4.034,4.034,0,0,1-1.582,2.289,4.748,4.748,0,0,1-2.6.678,5.023,5.023,0,0,1-1.893-.339,3.914,3.914,0,0,1-1.441-.961,4.017,4.017,0,0,1-.9-1.5,5.124,5.124,0,0,1-.311-1.893,4.978,4.978,0,0,1,.339-1.865,4.785,4.785,0,0,1,.932-1.5,3.979,3.979,0,0,1,1.441-.989,4.486,4.486,0,0,1,1.865-.367,4.01,4.01,0,0,1,1.978.452,3.746,3.746,0,0,1,1.384,1.187,5.18,5.18,0,0,1,.791,1.7,5.752,5.752,0,0,1,.169,1.978h-6.442a2.636,2.636,0,0,0,.622,1.752m2.769-4.69a1.73,1.73,0,0,0-1.328-.48,2.132,2.132,0,0,0-.989.2,2.256,2.256,0,0,0-.622.48,1.917,1.917,0,0,0-.339.622,2.7,2.7,0,0,0-.113.593h3.984a2.616,2.616,0,0,0-.593-1.413" transform="translate(-127.633 -8.609)" fill="#fff"/>
    <path id="Path_436" data-name="Path 436" d="M423.2,153.489a2.673,2.673,0,0,1-1.13,1.045,3.6,3.6,0,0,1-1.582.311,3.813,3.813,0,0,1-1.752-.4,3.468,3.468,0,0,1-1.243-1.045,4.774,4.774,0,0,1-.735-1.526,6.357,6.357,0,0,1-.254-1.808,5.782,5.782,0,0,1,.254-1.724,4.777,4.777,0,0,1,.735-1.469,3.649,3.649,0,0,1,1.243-1.017,3.778,3.778,0,0,1,1.724-.4,3.33,3.33,0,0,1,1.5.339,2.746,2.746,0,0,1,1.13.989h.028V142.3h2.458v12.348h-2.345v-1.13H423.2Zm-.113-4.408a2.349,2.349,0,0,0-.367-.9,1.948,1.948,0,0,0-.65-.622,1.773,1.773,0,0,0-.989-.254,1.942,1.942,0,0,0-1.017.254,1.869,1.869,0,0,0-.678.65,2.891,2.891,0,0,0-.367.9,4.469,4.469,0,0,0-.113,1.074,4.55,4.55,0,0,0,.113,1.045,3.435,3.435,0,0,0,.4.932,1.87,1.87,0,0,0,.678.65,1.839,1.839,0,0,0,.989.254,1.941,1.941,0,0,0,1.017-.254,1.791,1.791,0,0,0,.65-.65,2.45,2.45,0,0,0,.339-.932,6.574,6.574,0,0,0,.113-1.074,4.468,4.468,0,0,0-.113-1.074" transform="translate(-152.17 -0.646)" fill="#fff"/>
    <path id="Path_437" data-name="Path 437" d="M275.5,257h14.3c3.475,0,8.053,0,10.426,1.441a9.339,9.339,0,0,1,4.634,8.222,9.135,9.135,0,0,1-5.849,8.844v.113c4.86.989,7.516,4.634,7.516,9.494,0,5.792-4.154,11.331-11.98,11.331H275.5Zm5.256,16.953h10.511c5.962,0,8.392-2.147,8.392-6.3,0-5.482-3.871-6.244-8.392-6.244H280.756Zm0,18.055h13.139c4.521,0,7.4-2.769,7.4-7.064,0-5.143-4.154-6.584-8.561-6.584h-11.98Z" transform="translate(-51.01 -82.937)" fill="#fff"/>
    <path id="Path_438" data-name="Path 438" d="M268.936,239.057a29.993,29.993,0,1,1-30.007-29.979,29.984,29.984,0,0,1,30.007,29.979M238.957,204.5a34.557,34.557,0,1,0,34.557,34.557A34.555,34.555,0,0,0,238.957,204.5" transform="translate(0 -45.271)" fill="#fff"/>
    <path id="Path_439" data-name="Path 439" d="M211.216,467.365a1.88,1.88,0,0,0-1.921-1.526c-1.724,0-2.373,1.469-2.373,3,0,1.441.65,2.91,2.373,2.91a1.959,1.959,0,0,0,1.978-1.95h1.865a3.679,3.679,0,0,1-3.843,3.56c-2.713,0-4.295-2.006-4.295-4.549,0-2.6,1.582-4.606,4.295-4.606a3.533,3.533,0,0,1,3.758,3.136h-1.837Z" transform="translate(-0.43 -231.591)" fill="#fff"/>
    <path id="Path_440" data-name="Path 440" d="M239.678,473a3.335,3.335,0,1,1-3.278,3.334A3.1,3.1,0,0,1,239.678,473m0,5.34c1.187,0,1.554-1.017,1.554-2.006,0-1.017-.367-2.034-1.554-2.034s-1.526,1.017-1.526,2.034c0,.989.367,2.006,1.526,2.006" transform="translate(-22.958 -237.905)" fill="#fff"/>
    <path id="Path_441" data-name="Path 441" d="M263.128,473.17h1.639v1.187h.028A2.255,2.255,0,0,1,266.8,473a1.653,1.653,0,0,1,.367.057v1.611a4.232,4.232,0,0,0-.622-.057c-1.272,0-1.724.9-1.724,2.034V479.5H263.1V473.17Z" transform="translate(-42.114 -237.905)" fill="#fff"/>
    <path id="Path_442" data-name="Path 442" d="M280.9,473.17h1.639v.819h.028A2.117,2.117,0,0,1,284.46,473c1.978,0,2.882,1.611,2.882,3.391,0,1.7-.932,3.278-2.769,3.278a2.255,2.255,0,0,1-1.893-.961h-.057v3.023H280.9Zm4.69,3.165c0-1.017-.4-2.034-1.526-2.034s-1.5,1.017-1.5,2.034.4,2.006,1.526,2.006,1.5-.961,1.5-2.006" transform="translate(-54.884 -237.905)" fill="#fff"/>
    <path id="Path_443" data-name="Path 443" d="M309.878,473a3.335,3.335,0,1,1-3.278,3.334A3.1,3.1,0,0,1,309.878,473m0,5.34c1.187,0,1.554-1.017,1.554-2.006,0-1.017-.367-2.034-1.554-2.034s-1.526,1.017-1.526,2.034c0,.989.339,2.006,1.526,2.006" transform="translate(-73.323 -237.905)" fill="#fff"/>
    <path id="Path_444" data-name="Path 444" d="M333.828,473.17h1.639v1.187h.028A2.255,2.255,0,0,1,337.5,473a1.432,1.432,0,0,1,.367.057v1.611a4.232,4.232,0,0,0-.622-.057c-1.272,0-1.724.9-1.724,2.034V479.5H333.8V473.17Z" transform="translate(-92.837 -237.905)" fill="#fff"/>
    <path id="Path_445" data-name="Path 445" d="M350.069,475.119c.113-1.639,1.554-2.119,2.967-2.119,1.271,0,2.769.283,2.769,1.808v3.278a3.126,3.126,0,0,0,.226,1.413H354.28a2.2,2.2,0,0,1-.113-.622,2.917,2.917,0,0,1-2.119.791c-1.187,0-2.147-.593-2.147-1.893,0-1.441,1.074-1.78,2.147-1.921,1.074-.17,2.063-.113,2.063-.819,0-.735-.509-.848-1.13-.848-.65,0-1.1.254-1.158.961h-1.752Zm4.012,1.272a3.256,3.256,0,0,1-1.441.367c-.537.113-1.017.283-1.017.932s.509.819,1.074.819a1.291,1.291,0,0,0,1.413-1.441v-.678Z" transform="translate(-104.388 -237.905)" fill="#fff"/>
    <path id="Path_446" data-name="Path 446" d="M376.369,468.793h1.271v1.158h-1.271v3.136c0,.593.141.735.735.735a1.651,1.651,0,0,0,.537-.057v1.356a5.807,5.807,0,0,1-1.017.057c-1.074,0-1.978-.254-1.978-1.5v-3.73H373.6v-1.158h1.045V466.9h1.724Z" transform="translate(-121.392 -233.528)" fill="#fff"/>
    <path id="Path_447" data-name="Path 447" d="M392.724,466.441H391V465h1.724ZM391,467.43h1.724v6.329H391Z" transform="translate(-133.875 -232.165)" fill="#fff"/>
    <path id="Path_448" data-name="Path 448" d="M403.748,473a3.335,3.335,0,1,1-3.249,3.334A3.065,3.065,0,0,1,403.748,473m0,5.34c1.187,0,1.554-1.017,1.554-2.006,0-1.017-.339-2.034-1.554-2.034-1.187,0-1.526,1.017-1.526,2.034,0,.989.339,2.006,1.526,2.006" transform="translate(-140.69 -237.905)" fill="#fff"/>
    <path id="Path_449" data-name="Path 449" d="M427.5,473.17h1.639v.876h.028A2.251,2.251,0,0,1,431.088,473c1.837,0,2.317,1.045,2.317,2.6v3.9h-1.724v-3.56c0-1.045-.311-1.554-1.1-1.554-.932,0-1.356.537-1.356,1.808V479.5H427.5Z" transform="translate(-160.062 -237.905)" fill="#fff"/>
    <rect id="Rectangle_254" data-name="Rectangle 254" width="68.859" height="4.408" transform="translate(204.541 246.963)" fill="#fff"/>
    <path id="Path_450" data-name="Path 450" d="M449.589,463.67h-.4v1.1H449v-1.1h-.4v-.17h1.017v.17Zm1.7,1.1h-.2V463.7h0l-.424,1.074h-.141L450.1,463.7h0v1.074h-.226V463.5h.339l.4.961.367-.961h.339v1.271Z" transform="translate(-175.2 -231.089)" fill="#fff"/>
  </g>
</svg>
