<svg xmlns="http://www.w3.org/2000/svg" xmlns:xlink="http://www.w3.org/1999/xlink" width="91.474" height="70.633" viewBox="0 0 91.474 70.633">
  <defs>
    <filter id="Union_15" x="4" y="4" width="87.474" height="66.633" filterUnits="userSpaceOnUse">
      <feOffset dx="2" dy="2" input="SourceAlpha"/>
      <feGaussianBlur stdDeviation="3" result="blur"/>
      <feFlood flood-opacity="0.161"/>
      <feComposite operator="in" in2="blur"/>
      <feComposite in="SourceGraphic"/>
    </filter>
    <filter id="Union_16" x="0" y="0" width="87.474" height="66.633" filterUnits="userSpaceOnUse">
      <feOffset dx="-2" dy="-2" input="SourceAlpha"/>
      <feGaussianBlur stdDeviation="3" result="blur-2"/>
      <feFlood flood-color="#fff" flood-opacity="0.82"/>
      <feComposite operator="in" in2="blur-2"/>
      <feComposite in="SourceGraphic"/>
    </filter>
  </defs>
  <g id="Group_917" data-name="Group 917" transform="translate(-687.541 -142.761)">
    <g id="Group_875" data-name="Group 875" transform="translate(-16245 -11914)">
      <g transform="matrix(1, 0, 0, 1, 16932.54, 12056.76)" filter="url(#Union_15)">
        <path id="Union_15-2" data-name="Union 15" d="M3.474,48.632A3.736,3.736,0,0,1,0,45.158V4.169L32.653,27.1a3.762,3.762,0,0,0,3.82,0l33-22.927v40.99A3.736,3.736,0,0,1,66,48.632ZM5.9,0H63.567L34.736,20.147Z" transform="translate(11 11)" fill="#f1f1f1"/>
      </g>
      <g transform="matrix(1, 0, 0, 1, 16932.54, 12056.76)" filter="url(#Union_16)">
        <path id="Union_16-2" data-name="Union 16" d="M3.474,48.632A3.736,3.736,0,0,1,0,45.158V4.169L32.653,27.1a3.762,3.762,0,0,0,3.82,0l33-22.927v40.99A3.736,3.736,0,0,1,66,48.632ZM5.9,0H63.567L34.736,20.147Z" transform="translate(11 11)" fill="#f1f1f1"/>
      </g>
    </g>
    <path id="Union_16-3" data-name="Union 16" d="M3.474,48.632A3.736,3.736,0,0,1,0,45.158V4.169L32.653,27.1a3.762,3.762,0,0,0,3.82,0l33-22.927v40.99A3.736,3.736,0,0,1,66,48.632ZM5.9,0H63.567L34.736,20.147Z" transform="translate(698.541 153.761)" fill="#8eae3f" opacity="0.7"/>
  </g>
</svg>
