<svg xmlns="http://www.w3.org/2000/svg" xmlns:xlink="http://www.w3.org/1999/xlink" width="92.851" height="92.131" viewBox="0 0 92.851 92.131">
  <defs>
    <filter id="Union_21" x="4" y="4" width="88.851" height="88.131" filterUnits="userSpaceOnUse">
      <feOffset dx="2" dy="2" input="SourceAlpha"/>
      <feGaussianBlur stdDeviation="3" result="blur"/>
      <feFlood flood-opacity="0.161"/>
      <feComposite operator="in" in2="blur"/>
      <feComposite in="SourceGraphic"/>
    </filter>
    <filter id="Union_22" x="0" y="0" width="88.851" height="88.131" filterUnits="userSpaceOnUse">
      <feOffset dx="-2" dy="-2" input="SourceAlpha"/>
      <feGaussianBlur stdDeviation="3" result="blur-2"/>
      <feFlood flood-color="#fcfcfc" flood-opacity="0.851"/>
      <feComposite operator="in" in2="blur-2"/>
      <feComposite in="SourceGraphic"/>
    </filter>
  </defs>
  <g id="Group_920" data-name="Group 920" transform="translate(-836.53 -132.686)">
    <g id="Group_878" data-name="Group 878" transform="translate(-17618 -11914)">
      <g transform="matrix(1, 0, 0, 1, 18454.53, 12046.69)" filter="url(#Union_21)">
        <path id="Union_21-2" data-name="Union 21" d="M28.6,70.131l-1.923-.022a1.9,1.9,0,0,1-1.869-1.7l-.152-1.46a11.081,11.081,0,0,1-2.524-1.1L21,66.718a1.9,1.9,0,0,1-2.524-.175l-1.346-1.376a1.894,1.894,0,0,1-.114-2.523l.913-1.125a10.967,10.967,0,0,1-1-2.455l-1.414-.183a1.894,1.894,0,0,1-1.657-1.908l.023-1.922a1.9,1.9,0,0,1,1.7-1.87l1.33-.137A11.08,11.08,0,0,1,18,50.385l-.814-1.049a1.9,1.9,0,0,1,.175-2.524l1.383-1.353a1.9,1.9,0,0,1,2.524-.114l.95.776a11.476,11.476,0,0,1,2.866-1.171l.151-1.185a1.9,1.9,0,0,1,1.908-1.657l1.923.022a1.9,1.9,0,0,1,1.869,1.7l.122,1.193a11.187,11.187,0,0,1,2.767,1.2l.919-.706a1.9,1.9,0,0,1,2.524.175l1.346,1.375a1.9,1.9,0,0,1,.114,2.524l-.768.942A11.494,11.494,0,0,1,39,53.2l1.231.159a1.9,1.9,0,0,1,1.657,1.908l-.022,1.923a1.9,1.9,0,0,1-1.7,1.869l-1.262.13a11.014,11.014,0,0,1-1.156,2.66l.814,1.057a1.9,1.9,0,0,1-.175,2.524l-1.376,1.345a1.9,1.9,0,0,1-2.524.114l-1.064-.859a11.452,11.452,0,0,1-2.736,1.064l-.175,1.383a1.894,1.894,0,0,1-1.877,1.657Zm-5.67-14.183a5,5,0,1,0,5.062-4.94h-.057A5.005,5.005,0,0,0,22.931,55.948Zm28.44-1.39-.434-2.144a13.7,13.7,0,0,1-3.215-1.049l-1.566,1.467a1.894,1.894,0,0,1-2.523.068l-2.395-2.022a1.9,1.9,0,0,1-.356-2.5l1.193-1.8a13.954,13.954,0,0,1-1.512-2.888l-2.136-.068a1.9,1.9,0,0,1-1.832-1.741l-.266-3.124a1.911,1.911,0,0,1,1.52-2.021l1.976-.4a14.144,14.144,0,0,1,1.018-3.374l-1.383-1.475a1.894,1.894,0,0,1-.068-2.524l2.022-2.409a1.9,1.9,0,0,1,2.5-.357L45.5,27.24a13.7,13.7,0,0,1,3.367-1.771l.06-1.854a1.9,1.9,0,0,1,1.741-1.832l3.124-.265a1.912,1.912,0,0,1,2.022,1.52l.372,1.824A13.689,13.689,0,0,1,59.709,26l1.322-1.238a1.893,1.893,0,0,1,2.524-.068l2.394,2.021a1.889,1.889,0,0,1,.342,2.508L65.249,30.79a13.777,13.777,0,0,1,1.589,3.131l1.908.061a1.9,1.9,0,0,1,1.832,1.741l.265,3.123a1.911,1.911,0,0,1-1.52,2.022l-1.9.388a13.711,13.711,0,0,1-1.094,3.389L67.72,46.12a1.893,1.893,0,0,1,.068,2.524l-2.021,2.395a1.9,1.9,0,0,1-2.5.356L61.54,50.255a14.071,14.071,0,0,1-3.215,1.626l-.068,2.1a1.9,1.9,0,0,1-1.741,1.832l-3.124.266q-.076.006-.151.006A1.912,1.912,0,0,1,51.371,54.557Zm1.77-22.019a6.131,6.131,0,1,0,.527-.023Q53.407,32.515,53.141,32.538ZM18.635,41.986a1.922,1.922,0,0,1-1.907-1.7l-.35-3A16.958,16.958,0,0,1,12.57,35.67l-2.334,1.847a1.919,1.919,0,0,1-2.553-.145L4.476,34.165a1.928,1.928,0,0,1-.144-2.554l1.862-2.349A17.206,17.206,0,0,1,4.65,25.6L1.7,25.257A1.923,1.923,0,0,1,0,23.349V18.811A1.922,1.922,0,0,1,1.7,16.9l2.8-.319A16.555,16.555,0,0,1,6.08,12.578L4.332,10.367a1.92,1.92,0,0,1,.144-2.554L7.683,4.605a1.928,1.928,0,0,1,2.554-.144l2.09,1.657a16.836,16.836,0,0,1,4.28-1.809l.3-2.607A1.923,1.923,0,0,1,18.818,0h4.538a1.923,1.923,0,0,1,1.908,1.7l.3,2.607a16.95,16.95,0,0,1,4.173,1.748l2.014-1.6a1.919,1.919,0,0,1,2.553.144l3.2,3.2a1.927,1.927,0,0,1,.144,2.553l-1.642,2.075A16.84,16.84,0,0,1,37.622,16.4l2.668.312a1.922,1.922,0,0,1,1.7,1.907v4.538a1.923,1.923,0,0,1-1.7,1.908l-2.705.311A16.772,16.772,0,0,1,35.9,29.391l1.755,2.227a1.92,1.92,0,0,1-.144,2.554L34.308,37.38a1.927,1.927,0,0,1-2.553.144L29.5,35.738a17.156,17.156,0,0,1-4.082,1.649l-.334,2.9a1.923,1.923,0,0,1-1.908,1.7ZM13.589,20.825a7.5,7.5,0,1,0,7.5-7.5A7.512,7.512,0,0,0,13.589,20.825Z" transform="translate(11 11)" fill="#f1f1f1"/>
      </g>
      <g transform="matrix(1, 0, 0, 1, 18454.53, 12046.69)" filter="url(#Union_22)">
        <path id="Union_22-2" data-name="Union 22" d="M28.6,70.131l-1.923-.022a1.9,1.9,0,0,1-1.869-1.7l-.152-1.46a11.081,11.081,0,0,1-2.524-1.1L21,66.718a1.9,1.9,0,0,1-2.524-.175l-1.346-1.376a1.894,1.894,0,0,1-.114-2.523l.913-1.125a10.967,10.967,0,0,1-1-2.455l-1.414-.183a1.894,1.894,0,0,1-1.657-1.908l.023-1.922a1.9,1.9,0,0,1,1.7-1.87l1.33-.137A11.08,11.08,0,0,1,18,50.385l-.814-1.049a1.9,1.9,0,0,1,.175-2.524l1.383-1.353a1.9,1.9,0,0,1,2.524-.114l.95.776a11.476,11.476,0,0,1,2.866-1.171l.151-1.185a1.9,1.9,0,0,1,1.908-1.657l1.923.022a1.9,1.9,0,0,1,1.869,1.7l.122,1.193a11.187,11.187,0,0,1,2.767,1.2l.919-.706a1.9,1.9,0,0,1,2.524.175l1.346,1.375a1.9,1.9,0,0,1,.114,2.524l-.768.942A11.494,11.494,0,0,1,39,53.2l1.231.159a1.9,1.9,0,0,1,1.657,1.908l-.022,1.923a1.9,1.9,0,0,1-1.7,1.869l-1.262.13a11.014,11.014,0,0,1-1.156,2.66l.814,1.057a1.9,1.9,0,0,1-.175,2.524l-1.376,1.345a1.9,1.9,0,0,1-2.524.114l-1.064-.859a11.452,11.452,0,0,1-2.736,1.064l-.175,1.383a1.894,1.894,0,0,1-1.877,1.657Zm-5.67-14.183a5,5,0,1,0,5.062-4.94h-.057A5.005,5.005,0,0,0,22.931,55.948Zm28.44-1.39-.434-2.144a13.7,13.7,0,0,1-3.215-1.049l-1.566,1.467a1.894,1.894,0,0,1-2.523.068l-2.395-2.022a1.9,1.9,0,0,1-.356-2.5l1.193-1.8a13.954,13.954,0,0,1-1.512-2.888l-2.136-.068a1.9,1.9,0,0,1-1.832-1.741l-.266-3.124a1.911,1.911,0,0,1,1.52-2.021l1.976-.4a14.144,14.144,0,0,1,1.018-3.374l-1.383-1.475a1.894,1.894,0,0,1-.068-2.524l2.022-2.409a1.9,1.9,0,0,1,2.5-.357L45.5,27.24a13.7,13.7,0,0,1,3.367-1.771l.06-1.854a1.9,1.9,0,0,1,1.741-1.832l3.124-.265a1.912,1.912,0,0,1,2.022,1.52l.372,1.824A13.689,13.689,0,0,1,59.709,26l1.322-1.238a1.893,1.893,0,0,1,2.524-.068l2.394,2.021a1.889,1.889,0,0,1,.342,2.508L65.249,30.79a13.777,13.777,0,0,1,1.589,3.131l1.908.061a1.9,1.9,0,0,1,1.832,1.741l.265,3.123a1.911,1.911,0,0,1-1.52,2.022l-1.9.388a13.711,13.711,0,0,1-1.094,3.389L67.72,46.12a1.893,1.893,0,0,1,.068,2.524l-2.021,2.395a1.9,1.9,0,0,1-2.5.356L61.54,50.255a14.071,14.071,0,0,1-3.215,1.626l-.068,2.1a1.9,1.9,0,0,1-1.741,1.832l-3.124.266q-.076.006-.151.006A1.912,1.912,0,0,1,51.371,54.557Zm1.77-22.019a6.131,6.131,0,1,0,.527-.023Q53.407,32.515,53.141,32.538ZM18.635,41.986a1.922,1.922,0,0,1-1.907-1.7l-.35-3A16.958,16.958,0,0,1,12.57,35.67l-2.334,1.847a1.919,1.919,0,0,1-2.553-.145L4.476,34.165a1.928,1.928,0,0,1-.144-2.554l1.862-2.349A17.206,17.206,0,0,1,4.65,25.6L1.7,25.257A1.923,1.923,0,0,1,0,23.349V18.811A1.922,1.922,0,0,1,1.7,16.9l2.8-.319A16.555,16.555,0,0,1,6.08,12.578L4.332,10.367a1.92,1.92,0,0,1,.144-2.554L7.683,4.605a1.928,1.928,0,0,1,2.554-.144l2.09,1.657a16.836,16.836,0,0,1,4.28-1.809l.3-2.607A1.923,1.923,0,0,1,18.818,0h4.538a1.923,1.923,0,0,1,1.908,1.7l.3,2.607a16.95,16.95,0,0,1,4.173,1.748l2.014-1.6a1.919,1.919,0,0,1,2.553.144l3.2,3.2a1.927,1.927,0,0,1,.144,2.553l-1.642,2.075A16.84,16.84,0,0,1,37.622,16.4l2.668.312a1.922,1.922,0,0,1,1.7,1.907v4.538a1.923,1.923,0,0,1-1.7,1.908l-2.705.311A16.772,16.772,0,0,1,35.9,29.391l1.755,2.227a1.92,1.92,0,0,1-.144,2.554L34.308,37.38a1.927,1.927,0,0,1-2.553.144L29.5,35.738a17.156,17.156,0,0,1-4.082,1.649l-.334,2.9a1.923,1.923,0,0,1-1.908,1.7ZM13.589,20.825a7.5,7.5,0,1,0,7.5-7.5A7.512,7.512,0,0,0,13.589,20.825Z" transform="translate(11 11)" fill="#f1f1f1"/>
      </g>
    </g>
    <path id="Union_22-3" data-name="Union 22" d="M28.6,70.131l-1.923-.022a1.9,1.9,0,0,1-1.869-1.7l-.152-1.46a11.081,11.081,0,0,1-2.524-1.1L21,66.718a1.9,1.9,0,0,1-2.524-.175l-1.346-1.376a1.894,1.894,0,0,1-.114-2.523l.913-1.125a10.967,10.967,0,0,1-1-2.455l-1.414-.183a1.894,1.894,0,0,1-1.657-1.908l.023-1.922a1.9,1.9,0,0,1,1.7-1.87l1.33-.137A11.08,11.08,0,0,1,18,50.385l-.814-1.049a1.9,1.9,0,0,1,.175-2.524l1.383-1.353a1.9,1.9,0,0,1,2.524-.114l.95.776a11.476,11.476,0,0,1,2.866-1.171l.151-1.185a1.9,1.9,0,0,1,1.908-1.657l1.923.022a1.9,1.9,0,0,1,1.869,1.7l.122,1.193a11.187,11.187,0,0,1,2.767,1.2l.919-.706a1.9,1.9,0,0,1,2.524.175l1.346,1.375a1.9,1.9,0,0,1,.114,2.524l-.768.942A11.494,11.494,0,0,1,39,53.2l1.231.159a1.9,1.9,0,0,1,1.657,1.908l-.022,1.923a1.9,1.9,0,0,1-1.7,1.869l-1.262.13a11.014,11.014,0,0,1-1.156,2.66l.814,1.057a1.9,1.9,0,0,1-.175,2.524l-1.376,1.345a1.9,1.9,0,0,1-2.524.114l-1.064-.859a11.452,11.452,0,0,1-2.736,1.064l-.175,1.383a1.894,1.894,0,0,1-1.877,1.657Zm-5.67-14.183a5,5,0,1,0,5.062-4.94h-.057A5.005,5.005,0,0,0,22.931,55.948Zm28.44-1.39-.434-2.144a13.7,13.7,0,0,1-3.215-1.049l-1.566,1.467a1.894,1.894,0,0,1-2.523.068l-2.395-2.022a1.9,1.9,0,0,1-.356-2.5l1.193-1.8a13.954,13.954,0,0,1-1.512-2.888l-2.136-.068a1.9,1.9,0,0,1-1.832-1.741l-.266-3.124a1.911,1.911,0,0,1,1.52-2.021l1.976-.4a14.144,14.144,0,0,1,1.018-3.374l-1.383-1.475a1.894,1.894,0,0,1-.068-2.524l2.022-2.409a1.9,1.9,0,0,1,2.5-.357L45.5,27.24a13.7,13.7,0,0,1,3.367-1.771l.06-1.854a1.9,1.9,0,0,1,1.741-1.832l3.124-.265a1.912,1.912,0,0,1,2.022,1.52l.372,1.824A13.689,13.689,0,0,1,59.709,26l1.322-1.238a1.893,1.893,0,0,1,2.524-.068l2.394,2.021a1.889,1.889,0,0,1,.342,2.508L65.249,30.79a13.777,13.777,0,0,1,1.589,3.131l1.908.061a1.9,1.9,0,0,1,1.832,1.741l.265,3.123a1.911,1.911,0,0,1-1.52,2.022l-1.9.388a13.711,13.711,0,0,1-1.094,3.389L67.72,46.12a1.893,1.893,0,0,1,.068,2.524l-2.021,2.395a1.9,1.9,0,0,1-2.5.356L61.54,50.255a14.071,14.071,0,0,1-3.215,1.626l-.068,2.1a1.9,1.9,0,0,1-1.741,1.832l-3.124.266q-.076.006-.151.006A1.912,1.912,0,0,1,51.371,54.557Zm1.77-22.019a6.131,6.131,0,1,0,.527-.023Q53.407,32.515,53.141,32.538ZM18.635,41.986a1.922,1.922,0,0,1-1.907-1.7l-.35-3A16.958,16.958,0,0,1,12.57,35.67l-2.334,1.847a1.919,1.919,0,0,1-2.553-.145L4.476,34.165a1.928,1.928,0,0,1-.144-2.554l1.862-2.349A17.206,17.206,0,0,1,4.65,25.6L1.7,25.257A1.923,1.923,0,0,1,0,23.349V18.811A1.922,1.922,0,0,1,1.7,16.9l2.8-.319A16.555,16.555,0,0,1,6.08,12.578L4.332,10.367a1.92,1.92,0,0,1,.144-2.554L7.683,4.605a1.928,1.928,0,0,1,2.554-.144l2.09,1.657a16.836,16.836,0,0,1,4.28-1.809l.3-2.607A1.923,1.923,0,0,1,18.818,0h4.538a1.923,1.923,0,0,1,1.908,1.7l.3,2.607a16.95,16.95,0,0,1,4.173,1.748l2.014-1.6a1.919,1.919,0,0,1,2.553.144l3.2,3.2a1.927,1.927,0,0,1,.144,2.553l-1.642,2.075A16.84,16.84,0,0,1,37.622,16.4l2.668.312a1.922,1.922,0,0,1,1.7,1.907v4.538a1.923,1.923,0,0,1-1.7,1.908l-2.705.311A16.772,16.772,0,0,1,35.9,29.391l1.755,2.227a1.92,1.92,0,0,1-.144,2.554L34.308,37.38a1.927,1.927,0,0,1-2.553.144L29.5,35.738a17.156,17.156,0,0,1-4.082,1.649l-.334,2.9a1.923,1.923,0,0,1-1.908,1.7ZM13.589,20.825a7.5,7.5,0,1,0,7.5-7.5A7.512,7.512,0,0,0,13.589,20.825Z" transform="translate(847.531 143.686)" fill="#8eae3f" opacity="0.7"/>
  </g>
</svg>
