<svg xmlns="http://www.w3.org/2000/svg" xmlns:xlink="http://www.w3.org/1999/xlink" width="170" height="156" viewBox="0 0 170 156">
  <defs>
    <linearGradient id="linear-gradient" y1="0.01" x2="0.694" y2="0.657" gradientUnits="objectBoundingBox">
      <stop offset="0" stop-color="#97df79"/>
      <stop offset="1" stop-color="#7bce76"/>
    </linearGradient>
    <clipPath id="clip-path">
      <rect id="Rectangle_170" data-name="Rectangle 170" width="170" height="156" rx="8" transform="translate(9677 3307)" fill="#fff"/>
    </clipPath>
  </defs>
  <g id="Group_620" data-name="Group 620" transform="translate(-22797 2919)">
    <path id="Rectangle_169" data-name="Rectangle 169" d="M8,0H170a0,0,0,0,1,0,0V156a0,0,0,0,1,0,0H8a8,8,0,0,1-8-8V8A8,8,0,0,1,8,0Z" transform="translate(22797 -2919)" fill="url(#linear-gradient)"/>
    <g id="Mask_Group_8" data-name="Mask Group 8" transform="translate(13120 -6226)" clip-path="url(#clip-path)">
      <g id="Group_360" data-name="Group 360" transform="translate(-331 -21)">
        <g id="Group_293" data-name="Group 293" transform="translate(9998.143 3372.159)" opacity="0.11">
          <path id="Path_368" data-name="Path 368" d="M2578.484-561.924a29.957,29.957,0,0,1-7.131,19.427,21.473,21.473,0,0,1-5.6-3.8,23.27,23.27,0,0,0,6.01-15.625,23.27,23.27,0,0,0-6.01-15.625q-.645-.713-1.345-1.374a23.345,23.345,0,0,0-5.606-3.913c-.605-.3-1.225-.581-1.859-.829a23.226,23.226,0,0,0-8.536-1.617,23.383,23.383,0,0,0-23.357,23.357,23.383,23.383,0,0,0,23.357,23.356,23.227,23.227,0,0,0,8.536-1.616,32.257,32.257,0,0,0,5.606,4.8,29.881,29.881,0,0,1-14.143,3.538,30.115,30.115,0,0,1-30.082-30.082,30.115,30.115,0,0,1,30.082-30.082,29.88,29.88,0,0,1,14.143,3.538q.951.508,1.859,1.081a30.269,30.269,0,0,1,5.606,4.552q.7.721,1.343,1.484A29.957,29.957,0,0,1,2578.484-561.924Z" transform="translate(-2518.32 592.006)" fill="#fff"/>
          <path id="Path_369" data-name="Path 369" d="M3588.763-561.924a30.115,30.115,0,0,1-30.082,30.082,29.882,29.882,0,0,1-14.143-3.538q-.951-.508-1.859-1.081a30.283,30.283,0,0,1-5.606-4.552c-.463-.48-.913-.975-1.343-1.484a29.957,29.957,0,0,1-7.131-19.427,29.957,29.957,0,0,1,7.131-19.427,21.471,21.471,0,0,1,5.6,3.8,23.271,23.271,0,0,0-6.01,15.625,23.271,23.271,0,0,0,6.01,15.625q.645.713,1.345,1.374a23.343,23.343,0,0,0,5.606,3.913c.605.3,1.225.581,1.859.829a23.228,23.228,0,0,0,8.537,1.616,23.382,23.382,0,0,0,23.356-23.356,23.382,23.382,0,0,0-23.356-23.357,23.227,23.227,0,0,0-8.537,1.617,32.257,32.257,0,0,0-5.606-4.8,29.881,29.881,0,0,1,14.143-3.538A30.115,30.115,0,0,1,3588.763-561.924Z" transform="translate(-3496.596 592.006)" fill="#fff"/>
        </g>
        <circle id="Ellipse_33" data-name="Ellipse 33" cx="5" cy="5" r="5" transform="translate(10134 3348)" fill="#fff" opacity="0.51"/>
        <circle id="Ellipse_36" data-name="Ellipse 36" cx="4.5" cy="4.5" r="4.5" transform="translate(10042 3434)" fill="#fff" opacity="0.17"/>
        <ellipse id="Ellipse_34" data-name="Ellipse 34" cx="11.5" cy="11" rx="11.5" ry="11" transform="translate(10059 3445)" fill="#fff" opacity="0.07"/>
        <ellipse id="Ellipse_35" data-name="Ellipse 35" cx="11.5" cy="12" rx="11.5" ry="12" transform="translate(10067 3370)" fill="#fff" opacity="0.07"/>
        <path id="Path_370" data-name="Path 370" d="M-8396.463-990v68.756" transform="translate(18523.217 4439.118)" fill="none" stroke="#fff" stroke-linecap="round" stroke-width="12" opacity="0.19"/>
        <path id="Path_371" data-name="Path 371" d="M-8396.463-990v68.756" transform="translate(18542.652 4415.179)" fill="none" stroke="#fff" stroke-linecap="round" stroke-width="12" opacity="0.1"/>
      </g>
    </g>
    <g id="Group_508" data-name="Group 508" transform="translate(22851.988 -2844.775)">
      <path id="Path_6428" data-name="Path 6428" d="M37.9,209.79v-2.053l4.927-3.695a1.368,1.368,0,0,0-.341-2.376l-4.586-1.72v-6.578A1.368,1.368,0,0,0,36.527,192H17.368A1.368,1.368,0,0,0,16,193.368V209.79a1.368,1.368,0,0,0,1.368,1.368H36.527A1.368,1.368,0,0,0,37.9,209.79Zm-2.737-2.737v1.368H18.737V194.737H35.159V200.9a1.369,1.369,0,0,0,.888,1.281l3.135,1.175-3.475,2.606A1.368,1.368,0,0,0,35.159,207.053Z" transform="translate(-16 -192)" fill="#fff"/>
      <path id="Path_6429" data-name="Path 6429" d="M48,248h2.737v4.105H48Z" transform="translate(-42.526 -238.421)" fill="#fff"/>
      <path id="Path_6430" data-name="Path 6430" d="M72,224h2.737v8.211H72Z" transform="translate(-62.421 -218.526)" fill="#fff"/>
      <path id="Path_6431" data-name="Path 6431" d="M96,240h2.737v5.474H96Z" transform="translate(-82.315 -231.789)" fill="#fff"/>
    </g>
    <g id="Group_507" data-name="Group 507" transform="translate(22879.357 -2852.131)">
      <path id="Path_6432" data-name="Path 6432" d="M362,96H342.842a1.368,1.368,0,0,0-1.368,1.368v2.053l-4.926,3.695a1.368,1.368,0,0,0,.341,2.376l4.586,1.72v6.578a1.369,1.369,0,0,0,1.368,1.368H362a1.369,1.369,0,0,0,1.368-1.368V97.368A1.369,1.369,0,0,0,362,96Zm-1.368,16.422H344.21v-6.158a1.368,1.368,0,0,0-.888-1.281l-3.135-1.176,3.475-2.606a1.369,1.369,0,0,0,.547-1.095V98.737h16.422Z" transform="translate(-335.999 -96)" fill="#fff"/>
      <path id="Path_6433" data-name="Path 6433" d="M399.416,128.693l1.769,1.769a1.368,1.368,0,0,0,2.062-.147l4.105-5.474-2.19-1.642L402,127.412l-1.621-1.621a1.368,1.368,0,0,0-1.935,0l-4.105,4.105,1.935,1.935Z" transform="translate(-384.363 -118.547)" fill="#fff"/>
    </g>
  </g>
</svg>
