<svg xmlns="http://www.w3.org/2000/svg" xmlns:xlink="http://www.w3.org/1999/xlink" width="206" height="192" viewBox="0 0 206 192">
  <defs>
    <linearGradient id="linear-gradient" y1="0.01" x2="0.694" y2="0.657" gradientUnits="objectBoundingBox">
      <stop offset="0" stop-color="#97df79"/>
      <stop offset="1" stop-color="#7bce76"/>
    </linearGradient>
    <filter id="Rectangle_169" x="0" y="0" width="206" height="192" filterUnits="userSpaceOnUse">
      <feOffset input="SourceAlpha"/>
      <feGaussianBlur stdDeviation="6" result="blur"/>
      <feFlood flood-opacity="0.161"/>
      <feComposite operator="in" in2="blur"/>
      <feComposite in="SourceGraphic"/>
    </filter>
    <clipPath id="clip-path">
      <rect id="Rectangle_170" data-name="Rectangle 170" width="170" height="156" rx="8" transform="translate(9677 3307)" fill="#fff"/>
    </clipPath>
  </defs>
  <g id="Group_567" data-name="Group 567" transform="translate(-6753 17359)">
    <g id="Group_559" data-name="Group 559" transform="translate(-3225 -20448)">
      <g transform="matrix(1, 0, 0, 1, 9978, 3089)" filter="url(#Rectangle_169)">
        <path id="Rectangle_169-2" data-name="Rectangle 169" d="M8,0H170a0,0,0,0,1,0,0V156a0,0,0,0,1,0,0H8a8,8,0,0,1-8-8V8A8,8,0,0,1,8,0Z" transform="translate(18 18)" fill="url(#linear-gradient)"/>
      </g>
      <g id="Mask_Group_8" data-name="Mask Group 8" transform="translate(319 -200)" clip-path="url(#clip-path)">
        <g id="Group_360" data-name="Group 360" transform="translate(-331 -21)">
          <g id="Group_293" data-name="Group 293" transform="translate(9998.143 3372.159)" opacity="0.11">
            <path id="Path_368" data-name="Path 368" d="M2578.484-561.924a29.957,29.957,0,0,1-7.131,19.427,21.473,21.473,0,0,1-5.6-3.8,23.27,23.27,0,0,0,6.01-15.625,23.27,23.27,0,0,0-6.01-15.625q-.645-.713-1.345-1.374a23.345,23.345,0,0,0-5.606-3.913c-.605-.3-1.225-.581-1.859-.829a23.226,23.226,0,0,0-8.536-1.617,23.383,23.383,0,0,0-23.357,23.357,23.383,23.383,0,0,0,23.357,23.356,23.227,23.227,0,0,0,8.536-1.616,32.257,32.257,0,0,0,5.606,4.8,29.881,29.881,0,0,1-14.143,3.538,30.115,30.115,0,0,1-30.082-30.082,30.115,30.115,0,0,1,30.082-30.082,29.88,29.88,0,0,1,14.143,3.538q.951.508,1.859,1.081a30.269,30.269,0,0,1,5.606,4.552q.7.721,1.343,1.484A29.957,29.957,0,0,1,2578.484-561.924Z" transform="translate(-2518.32 592.006)" fill="#fff"/>
            <path id="Path_369" data-name="Path 369" d="M3588.763-561.924a30.115,30.115,0,0,1-30.082,30.082,29.882,29.882,0,0,1-14.143-3.538q-.951-.508-1.859-1.081a30.283,30.283,0,0,1-5.606-4.552c-.463-.48-.913-.975-1.343-1.484a29.957,29.957,0,0,1-7.131-19.427,29.957,29.957,0,0,1,7.131-19.427,21.471,21.471,0,0,1,5.6,3.8,23.271,23.271,0,0,0-6.01,15.625,23.271,23.271,0,0,0,6.01,15.625q.645.713,1.345,1.374a23.343,23.343,0,0,0,5.606,3.913c.605.3,1.225.581,1.859.829a23.228,23.228,0,0,0,8.537,1.616,23.382,23.382,0,0,0,23.356-23.356,23.382,23.382,0,0,0-23.356-23.357,23.227,23.227,0,0,0-8.537,1.617,32.257,32.257,0,0,0-5.606-4.8,29.881,29.881,0,0,1,14.143-3.538A30.115,30.115,0,0,1,3588.763-561.924Z" transform="translate(-3496.596 592.006)" fill="#fff"/>
          </g>
          <circle id="Ellipse_33" data-name="Ellipse 33" cx="5" cy="5" r="5" transform="translate(10134 3348)" fill="#fff" opacity="0.51"/>
          <circle id="Ellipse_36" data-name="Ellipse 36" cx="4.5" cy="4.5" r="4.5" transform="translate(10042 3434)" fill="#fff" opacity="0.17"/>
          <ellipse id="Ellipse_34" data-name="Ellipse 34" cx="11.5" cy="11" rx="11.5" ry="11" transform="translate(10059 3445)" fill="#fff" opacity="0.07"/>
          <ellipse id="Ellipse_35" data-name="Ellipse 35" cx="11.5" cy="12" rx="11.5" ry="12" transform="translate(10067 3370)" fill="#fff" opacity="0.07"/>
          <path id="Path_370" data-name="Path 370" d="M-8396.463-990v68.756" transform="translate(18523.217 4439.118)" fill="none" stroke="#fff" stroke-linecap="round" stroke-width="12" opacity="0.19"/>
          <path id="Path_371" data-name="Path 371" d="M-8396.463-990v68.756" transform="translate(18542.652 4415.179)" fill="none" stroke="#fff" stroke-linecap="round" stroke-width="12" opacity="0.1"/>
        </g>
      </g>
    </g>
    <text id="DILIGENCE" transform="translate(6813 -17236)" fill="#fff" font-size="16" font-family="Poppins-SemiBold, Poppins" font-weight="600" letter-spacing="0.036em"><tspan x="0" y="0">DILIGENCE</tspan></text>
    <g id="Group_560" data-name="Group 560" transform="translate(6816 -17354)">
      <path id="Path_6398" data-name="Path 6398" d="M52.875,95.181l-8.787-8.787-.43-.43.38-.476A16.136,16.136,0,0,0,46.661,80.8l-2.376-1.463a13.595,13.595,0,1,1,.451-6.1L47.61,75a16.306,16.306,0,1,0-16.3,16.607,16.121,16.121,0,0,0,9.94-3.383l.473-.365.421.424L50.954,97.1a1.358,1.358,0,1,0,1.92-1.92Z" fill="#fff"/>
      <path id="Path_6399" data-name="Path 6399" d="M94.047,117.581,76.365,106.7l-6.681,9.718a1.472,1.472,0,1,1-2.426-1.668l8.266-12.024,17.648,10.86,6.46-9.69a1.472,1.472,0,1,1,2.45,1.633Z" transform="translate(-40.223 -33.823)" fill="#fff"/>
    </g>
  </g>
</svg>
