<svg xmlns="http://www.w3.org/2000/svg" xmlns:xlink="http://www.w3.org/1999/xlink" width="170" height="156" viewBox="0 0 170 156">
  <defs>
    <linearGradient id="linear-gradient" y1="0.01" x2="0.694" y2="0.657" gradientUnits="objectBoundingBox">
      <stop offset="0" stop-color="#97df79"/>
      <stop offset="1" stop-color="#7bce76"/>
    </linearGradient>
    <clipPath id="clip-path">
      <rect id="Rectangle_170" data-name="Rectangle 170" width="170" height="156" rx="8" transform="translate(9677 3307)" fill="#fff"/>
    </clipPath>
  </defs>
  <g id="Group_621" data-name="Group 621" transform="translate(-22797 2739)">
    <path id="Rectangle_169" data-name="Rectangle 169" d="M8,0H170a0,0,0,0,1,0,0V156a0,0,0,0,1,0,0H8a8,8,0,0,1-8-8V8A8,8,0,0,1,8,0Z" transform="translate(22797 -2739)" fill="url(#linear-gradient)"/>
    <g id="Mask_Group_8" data-name="Mask Group 8" transform="translate(13120 -6046)" clip-path="url(#clip-path)">
      <g id="Group_360" data-name="Group 360" transform="translate(-331 -21)">
        <g id="Group_293" data-name="Group 293" transform="translate(9998.143 3372.159)" opacity="0.11">
          <path id="Path_368" data-name="Path 368" d="M2578.484-561.924a29.957,29.957,0,0,1-7.131,19.427,21.473,21.473,0,0,1-5.6-3.8,23.27,23.27,0,0,0,6.01-15.625,23.27,23.27,0,0,0-6.01-15.625q-.645-.713-1.345-1.374a23.345,23.345,0,0,0-5.606-3.913c-.605-.3-1.225-.581-1.859-.829a23.226,23.226,0,0,0-8.536-1.617,23.383,23.383,0,0,0-23.357,23.357,23.383,23.383,0,0,0,23.357,23.356,23.227,23.227,0,0,0,8.536-1.616,32.257,32.257,0,0,0,5.606,4.8,29.881,29.881,0,0,1-14.143,3.538,30.115,30.115,0,0,1-30.082-30.082,30.115,30.115,0,0,1,30.082-30.082,29.88,29.88,0,0,1,14.143,3.538q.951.508,1.859,1.081a30.269,30.269,0,0,1,5.606,4.552q.7.721,1.343,1.484A29.957,29.957,0,0,1,2578.484-561.924Z" transform="translate(-2518.32 592.006)" fill="#fff"/>
          <path id="Path_369" data-name="Path 369" d="M3588.763-561.924a30.115,30.115,0,0,1-30.082,30.082,29.882,29.882,0,0,1-14.143-3.538q-.951-.508-1.859-1.081a30.283,30.283,0,0,1-5.606-4.552c-.463-.48-.913-.975-1.343-1.484a29.957,29.957,0,0,1-7.131-19.427,29.957,29.957,0,0,1,7.131-19.427,21.471,21.471,0,0,1,5.6,3.8,23.271,23.271,0,0,0-6.01,15.625,23.271,23.271,0,0,0,6.01,15.625q.645.713,1.345,1.374a23.343,23.343,0,0,0,5.606,3.913c.605.3,1.225.581,1.859.829a23.228,23.228,0,0,0,8.537,1.616,23.382,23.382,0,0,0,23.356-23.356,23.382,23.382,0,0,0-23.356-23.357,23.227,23.227,0,0,0-8.537,1.617,32.257,32.257,0,0,0-5.606-4.8,29.881,29.881,0,0,1,14.143-3.538A30.115,30.115,0,0,1,3588.763-561.924Z" transform="translate(-3496.596 592.006)" fill="#fff"/>
        </g>
        <circle id="Ellipse_33" data-name="Ellipse 33" cx="5" cy="5" r="5" transform="translate(10134 3348)" fill="#fff" opacity="0.51"/>
        <circle id="Ellipse_36" data-name="Ellipse 36" cx="4.5" cy="4.5" r="4.5" transform="translate(10042 3434)" fill="#fff" opacity="0.17"/>
        <ellipse id="Ellipse_34" data-name="Ellipse 34" cx="11.5" cy="11" rx="11.5" ry="11" transform="translate(10059 3445)" fill="#fff" opacity="0.07"/>
        <ellipse id="Ellipse_35" data-name="Ellipse 35" cx="11.5" cy="12" rx="11.5" ry="12" transform="translate(10067 3370)" fill="#fff" opacity="0.07"/>
        <path id="Path_370" data-name="Path 370" d="M-8396.463-990v68.756" transform="translate(18523.217 4439.118)" fill="none" stroke="#fff" stroke-linecap="round" stroke-width="12" opacity="0.19"/>
        <path id="Path_371" data-name="Path 371" d="M-8396.463-990v68.756" transform="translate(18542.652 4415.179)" fill="none" stroke="#fff" stroke-linecap="round" stroke-width="12" opacity="0.1"/>
      </g>
    </g>
    <g id="Group_511" data-name="Group 511" transform="translate(22860.756 -2671.823)">
      <g id="Group_510" data-name="Group 510">
        <path id="Path_6434" data-name="Path 6434" d="M96.669,172.244l-5.937-9.167a2.477,2.477,0,0,0-2.087-1.135H62.453a2.477,2.477,0,0,0-2.085,1.132l-5.955,9.169a2.492,2.492,0,0,0,.229,3.008l19.041,21.377a2.488,2.488,0,0,0,1.856.833h0a2.489,2.489,0,0,0,1.856-.832l19.043-21.378A2.492,2.492,0,0,0,96.669,172.244Zm-9.226-8.171-4.993,7.72-5-7.72Zm-6.951,8.617H70.587l4.953-7.654Zm-6.869-8.617-4.982,7.7-4.98-7.7Zm-11.933.878L66.7,172.69H56.664Zm-4.576,9.87H67.841l5.671,18.409Zm18.425,17.749-5.468-17.749H81.007Zm2.027.661,5.672-18.41H93.965Zm6.843-20.541,5-7.734,5.008,7.734Z" transform="translate(-54.014 -161.942)" fill="#fff"/>
      </g>
    </g>
    <g id="Group_513" data-name="Group 513" transform="translate(22855 -2661.074)">
      <g id="Group_512" data-name="Group 512">
        <path id="Path_6435" data-name="Path 6435" d="M3.233,262.793H1.066a1.066,1.066,0,0,0,0,2.132H3.233a1.066,1.066,0,0,0,0-2.132Z" transform="translate(0 -262.793)" fill="#fff"/>
      </g>
    </g>
    <g id="Group_515" data-name="Group 515" transform="translate(22905.268 -2661.074)">
      <g id="Group_514" data-name="Group 514">
        <path id="Path_6436" data-name="Path 6436" d="M474.9,262.793h-2.167a1.066,1.066,0,0,0,0,2.132H474.9a1.066,1.066,0,1,0,0-2.132Z" transform="translate(-471.667 -262.793)" fill="#fff"/>
      </g>
    </g>
    <g id="Group_517" data-name="Group 517" transform="translate(22896.229 -2679.607)">
      <g id="Group_516" data-name="Group 516">
        <path id="Path_6437" data-name="Path 6437" d="M392.217,89.209a1.066,1.066,0,0,0-1.507,0l-3.54,3.54a1.066,1.066,0,0,0,1.507,1.507l3.54-3.54A1.066,1.066,0,0,0,392.217,89.209Z" transform="translate(-386.857 -88.897)" fill="#fff"/>
      </g>
    </g>
    <g id="Group_519" data-name="Group 519" transform="translate(22862.711 -2679.626)">
      <g id="Group_518" data-name="Group 518">
        <path id="Path_6438" data-name="Path 6438" d="M77.718,92.571l-3.54-3.54a1.066,1.066,0,0,0-1.507,1.507l3.54,3.54a1.066,1.066,0,0,0,1.507-1.507Z" transform="translate(-72.358 -88.718)" fill="#fff"/>
      </g>
    </g>
    <g id="Group_521" data-name="Group 521" transform="translate(22881.244 -2685)">
      <g id="Group_520" data-name="Group 520">
        <path id="Path_6439" data-name="Path 6439" d="M247.32,16.793a1.042,1.042,0,0,0-1.066,1.017v6.628a1.067,1.067,0,0,0,2.132,0V17.81A1.042,1.042,0,0,0,247.32,16.793Z" transform="translate(-246.254 -16.793)" fill="#fff"/>
      </g>
    </g>
  </g>
</svg>
