<svg xmlns="http://www.w3.org/2000/svg" xmlns:xlink="http://www.w3.org/1999/xlink" width="170" height="156" viewBox="0 0 170 156">
  <defs>
    <linearGradient id="linear-gradient" y1="0.01" x2="0.694" y2="0.657" gradientUnits="objectBoundingBox">
      <stop offset="0" stop-color="#97df79"/>
      <stop offset="1" stop-color="#7bce76"/>
    </linearGradient>
    <clipPath id="clip-path">
      <rect id="Rectangle_170" data-name="Rectangle 170" width="170" height="156" rx="8" transform="translate(9677 3307)" fill="#fff"/>
    </clipPath>
  </defs>
  <g id="Group_616" data-name="Group 616" transform="translate(-22797 3639)">
    <path id="Rectangle_169" data-name="Rectangle 169" d="M8,0H170a0,0,0,0,1,0,0V156a0,0,0,0,1,0,0H8a8,8,0,0,1-8-8V8A8,8,0,0,1,8,0Z" transform="translate(22797 -3639)" fill="url(#linear-gradient)"/>
    <g id="Mask_Group_8" data-name="Mask Group 8" transform="translate(13120 -6946)" clip-path="url(#clip-path)">
      <g id="Group_360" data-name="Group 360" transform="translate(-331 -21)">
        <g id="Group_293" data-name="Group 293" transform="translate(9998.143 3372.159)" opacity="0.11">
          <path id="Path_368" data-name="Path 368" d="M2578.484-561.924a29.957,29.957,0,0,1-7.131,19.427,21.473,21.473,0,0,1-5.6-3.8,23.27,23.27,0,0,0,6.01-15.625,23.27,23.27,0,0,0-6.01-15.625q-.645-.713-1.345-1.374a23.345,23.345,0,0,0-5.606-3.913c-.605-.3-1.225-.581-1.859-.829a23.226,23.226,0,0,0-8.536-1.617,23.383,23.383,0,0,0-23.357,23.357,23.383,23.383,0,0,0,23.357,23.356,23.227,23.227,0,0,0,8.536-1.616,32.257,32.257,0,0,0,5.606,4.8,29.881,29.881,0,0,1-14.143,3.538,30.115,30.115,0,0,1-30.082-30.082,30.115,30.115,0,0,1,30.082-30.082,29.88,29.88,0,0,1,14.143,3.538q.951.508,1.859,1.081a30.269,30.269,0,0,1,5.606,4.552q.7.721,1.343,1.484A29.957,29.957,0,0,1,2578.484-561.924Z" transform="translate(-2518.32 592.006)" fill="#fff"/>
          <path id="Path_369" data-name="Path 369" d="M3588.763-561.924a30.115,30.115,0,0,1-30.082,30.082,29.882,29.882,0,0,1-14.143-3.538q-.951-.508-1.859-1.081a30.283,30.283,0,0,1-5.606-4.552c-.463-.48-.913-.975-1.343-1.484a29.957,29.957,0,0,1-7.131-19.427,29.957,29.957,0,0,1,7.131-19.427,21.471,21.471,0,0,1,5.6,3.8,23.271,23.271,0,0,0-6.01,15.625,23.271,23.271,0,0,0,6.01,15.625q.645.713,1.345,1.374a23.343,23.343,0,0,0,5.606,3.913c.605.3,1.225.581,1.859.829a23.228,23.228,0,0,0,8.537,1.616,23.382,23.382,0,0,0,23.356-23.356,23.382,23.382,0,0,0-23.356-23.357,23.227,23.227,0,0,0-8.537,1.617,32.257,32.257,0,0,0-5.606-4.8,29.881,29.881,0,0,1,14.143-3.538A30.115,30.115,0,0,1,3588.763-561.924Z" transform="translate(-3496.596 592.006)" fill="#fff"/>
        </g>
        <circle id="Ellipse_33" data-name="Ellipse 33" cx="5" cy="5" r="5" transform="translate(10134 3348)" fill="#fff" opacity="0.51"/>
        <circle id="Ellipse_36" data-name="Ellipse 36" cx="4.5" cy="4.5" r="4.5" transform="translate(10042 3434)" fill="#fff" opacity="0.17"/>
        <ellipse id="Ellipse_34" data-name="Ellipse 34" cx="11.5" cy="11" rx="11.5" ry="11" transform="translate(10059 3445)" fill="#fff" opacity="0.07"/>
        <ellipse id="Ellipse_35" data-name="Ellipse 35" cx="11.5" cy="12" rx="11.5" ry="12" transform="translate(10067 3370)" fill="#fff" opacity="0.07"/>
        <path id="Path_370" data-name="Path 370" d="M-8396.463-990v68.756" transform="translate(18523.217 4439.118)" fill="none" stroke="#fff" stroke-linecap="round" stroke-width="12" opacity="0.19"/>
        <path id="Path_371" data-name="Path 371" d="M-8396.463-990v68.756" transform="translate(18542.652 4415.179)" fill="none" stroke="#fff" stroke-linecap="round" stroke-width="12" opacity="0.1"/>
      </g>
    </g>
    <g id="Group_488" data-name="Group 488" transform="translate(22869.795 -3576.487)">
      <g id="Group_487" data-name="Group 487" transform="translate(0 0)">
        <path id="Path_6400" data-name="Path 6400" d="M187.726,60a1.726,1.726,0,1,0,1.726,1.726A1.726,1.726,0,0,0,187.726,60Z" transform="translate(-186 -60)" fill="#fff"/>
      </g>
    </g>
    <g id="Group_490" data-name="Group 490" transform="translate(22876.588 -3573.035)">
      <g id="Group_489" data-name="Group 489" transform="translate(0 0)">
        <path id="Path_6401" data-name="Path 6401" d="M230.649,90.355a1.726,1.726,0,1,1,0-3.452,2.771,2.771,0,0,1,1.867.9,1.726,1.726,0,1,0,2.4-2.481,6.667,6.667,0,0,0-2.541-1.589v-2.01a1.726,1.726,0,1,0-3.452,0v2.023a5.177,5.177,0,0,0,1.726,10.058,1.726,1.726,0,0,1,0,3.452,3.123,3.123,0,0,1-2.241-1.306,1.726,1.726,0,0,0-2.642,2.221,7.156,7.156,0,0,0,3.157,2.248v2.014a1.726,1.726,0,1,0,3.452,0v-2.023a5.177,5.177,0,0,0-1.726-10.058Z" transform="translate(-225.361 -80)" fill="#fff"/>
      </g>
    </g>
    <g id="Group_496" data-name="Group 496" transform="translate(22855.988 -3586.842)">
      <g id="Group_495" data-name="Group 495" transform="translate(0)">
        <path id="Path_6404" data-name="Path 6404" d="M131.888,0a25.888,25.888,0,1,0,25.888,25.888A25.917,25.917,0,0,0,131.888,0Zm0,48.324a22.436,22.436,0,1,1,22.436-22.436A22.461,22.461,0,0,1,131.888,48.324Z" transform="translate(-106)" fill="#fff"/>
      </g>
    </g>
    <g id="Group_498" data-name="Group 498" transform="translate(22862.893 -3579.933)">
      <g id="Group_497" data-name="Group 497" transform="translate(0 0)">
        <path id="Path_6405" data-name="Path 6405" d="M176.9,44.232a19.115,19.115,0,0,0-16.123-3.753,1.726,1.726,0,1,0,.727,3.374,15.679,15.679,0,0,1,13.227,3.064,15.53,15.53,0,1,1-23.446,4.76,1.726,1.726,0,1,0-3.041-1.632A18.986,18.986,0,1,0,176.9,44.232Z" transform="translate(-146 -40.031)" fill="#fff"/>
      </g>
    </g>
  </g>
</svg>
