<svg xmlns="http://www.w3.org/2000/svg" width="24" height="24" viewBox="0 0 24 24">
  <g id="Group_837" data-name="Group 837" transform="translate(3795 9341)">
    <circle id="Ellipse_1025" data-name="Ellipse 1025" cx="12" cy="12" r="12" transform="translate(-3795 -9341)" fill="#8eae3f"/>
    <g id="Group_836" data-name="Group 836" transform="translate(-3791.616 -9334.181)">
      <path id="Path_6330" data-name="Path 6330" d="M113.1,82.653a5.384,5.384,0,0,0-2.8.783,5.814,5.814,0,0,1,1.006.966,4.087,4.087,0,1,1-1.582,1.375,3.745,3.745,0,0,0-1.006-.883,5.413,5.413,0,1,0,4.386-2.241Z" transform="translate(-101.409 -82.653)" fill="#fff"/>
      <path id="Path_6331" data-name="Path 6331" d="M103.008,88.067c0-.133-.006-.265-.016-.4,0-.026,0-.053-.006-.079-.011-.13-.027-.259-.047-.386l-.006-.034c-.021-.128-.047-.255-.078-.38l0-.023q-.05-.2-.115-.4l0-.006a5.428,5.428,0,0,0-2.337-2.932h0l-.006,0c-.089-.054-.181-.105-.274-.154l-.081-.041q-.112-.058-.228-.109l-.072-.032c-.1-.043-.2-.083-.3-.12l-.056-.019c-.085-.03-.171-.057-.258-.083l-.092-.026c-.089-.025-.179-.047-.269-.067l-.055-.013c-.108-.022-.217-.041-.327-.057l-.084-.011c-.086-.012-.172-.02-.26-.028l-.1-.007c-.113-.008-.227-.012-.342-.012s-.236.005-.353.013l-.066,0A5.414,5.414,0,1,0,100.4,92.7a5.842,5.842,0,0,1-1.01-.97,4.079,4.079,0,1,1-3.275-7.464h0a4.165,4.165,0,0,1,.712-.208l.056-.009c.1-.019.21-.036.317-.047.13-.013.262-.02.4-.02s.248.008.37.019l.077.007c.106.011.209.028.313.048.046.009.091.018.137.029.069.015.136.033.2.053.084.023.167.049.248.079l.064.023c.129.049.256.1.379.163a4.1,4.1,0,0,1,1.588,1.373l0,0c.053.077.1.156.149.237l.011.018c.04.07.078.142.114.214.017.033.032.066.048.1.03.065.06.13.087.2s.044.116.064.174c.028.077.052.154.075.233s.044.158.062.238c.01.045.018.09.026.135q.023.123.038.248c0,.039.01.079.014.119.011.123.019.247.019.374,0,.05-.006.1-.008.148h0a4.053,4.053,0,0,1-.7,2.14,3.741,3.741,0,0,0,1.007.884A5.377,5.377,0,0,0,103,88.215h0C103.005,88.166,103.008,88.117,103.008,88.067Z" transform="translate(-92.179 -82.653)" fill="#fff"/>
    </g>
  </g>
</svg>
