<svg xmlns="http://www.w3.org/2000/svg" width="9.866" height="14.348" viewBox="0 0 9.866 14.348">
  <g id="pin" transform="translate(-79.968)" opacity="0.9">
    <path id="Path_451" data-name="Path 451" d="M89.149,2.457A4.869,4.869,0,0,0,85.011,0c-.073,0-.147,0-.221,0a4.869,4.869,0,0,0-4.138,2.456,5,5,0,0,0-.065,4.936L84.146,13.9l0,.009a.865.865,0,0,0,1.5,0l0-.009,3.558-6.513a5,5,0,0,0-.065-4.936ZM84.9,6.5a2.018,2.018,0,1,1,2.018-2.018A2.02,2.02,0,0,1,84.9,6.5Z" transform="translate(0 0)" fill="#fff"/>
  </g>
</svg>
