<svg xmlns="http://www.w3.org/2000/svg" width="239" height="39.543" viewBox="0 0 239 39.543">
  <g id="Group_348" data-name="Group 348" transform="translate(-92.179 -82.652)">
    <g id="Group_345" data-name="Group 345" transform="translate(161.78 83.085)">
      <path id="Path_402" data-name="Path 402" d="M142.485,83.315h7.253c3.915,0,6.623,1.814,6.623,5.995,0,4.3-2.322,6.187-6.454,6.187h-2.683v6.043h-4.739Zm4.739,8.364h.8c1.717,0,3.409,0,3.409-2.225,0-2.3-1.572-2.32-3.409-2.32h-.8Z" transform="translate(-142.485 -82.831)" fill="#fff"/>
      <path id="Path_403" data-name="Path 403" d="M157.836,98.373l-1.258,3.167h-5.026l7.009-18.225h5.173L170.6,101.54h-5.053l-1.184-3.167Zm3.312-9.426H161.1l-1.958,5.8h3.94Z" transform="translate(-139.007 -82.831)" fill="#fff"/>
      <path id="Path_404" data-name="Path 404" d="M181.538,101.54h-5.9l-4.472-7.009h-.048v7.009h-4.737V83.315h7.082c3.6,0,6.334,1.716,6.334,5.607a4.9,4.9,0,0,1-3.989,5.15ZM171.12,91.486h.459c1.547,0,3.287-.291,3.287-2.273s-1.74-2.272-3.287-2.272h-.459Z" transform="translate(-133.319 -82.831)" fill="#fff"/>
      <path id="Path_405" data-name="Path 405" d="M185.9,101.54h-4.737V87.327h-3.915V83.315h12.569v4.012H185.9Z" transform="translate(-129.152 -82.831)" fill="#fff"/>
      <path id="Path_406" data-name="Path 406" d="M187.572,83.315h4.737l8.679,11.143h.047V83.315h4.737V101.54h-4.737l-8.678-11.167h-.048V101.54h-4.737Z" transform="translate(-125.192 -82.831)" fill="#fff"/>
      <path id="Path_407" data-name="Path 407" d="M207.7,87.327v3.047h5.342v4.011H207.7v3.143h5.631v4.012h-10.37V83.315h10.37v4.012Z" transform="translate(-119.289 -82.831)" fill="#fff"/>
      <path id="Path_408" data-name="Path 408" d="M227.724,101.54h-5.9l-4.472-7.009h-.048v7.009h-4.739V83.315h7.082c3.6,0,6.334,1.716,6.334,5.607A4.9,4.9,0,0,1,222,94.072ZM217.308,91.486h.459c1.545,0,3.286-.291,3.286-2.273s-1.741-2.272-3.286-2.272h-.459Z" transform="translate(-115.605 -82.831)" fill="#fff"/>
      <path id="Path_409" data-name="Path 409" d="M234.683,88.138a4.986,4.986,0,0,0-3.142-1.208c-.87,0-2.032.508-2.032,1.523,0,1.063,1.283,1.473,2.1,1.741l1.209.362c2.537.748,4.5,2.03,4.5,4.979a6.2,6.2,0,0,1-1.886,4.907,8.007,8.007,0,0,1-5.174,1.716,11.257,11.257,0,0,1-6.406-2.079l2.031-3.82a6.5,6.5,0,0,0,4.206,1.887c1.112,0,2.3-.558,2.3-1.839,0-1.33-1.861-1.789-2.878-2.078-2.972-.845-4.93-1.619-4.93-5.148a5.907,5.907,0,0,1,6.284-6.117,12.46,12.46,0,0,1,5.7,1.5Z" transform="translate(-111.277 -82.965)" fill="#fff"/>
      <path id="Path_410" data-name="Path 410" d="M246.786,90.349V83.315h4.739V101.54h-4.739V94.072h-6.84v7.468h-4.737V83.315h4.737v7.034Z" transform="translate(-106.921 -82.831)" fill="#fff"/>
      <path id="Path_411" data-name="Path 411" d="M253.973,101.54h-4.737V83.315h4.737Z" transform="translate(-101.541 -82.831)" fill="#fff"/>
      <path id="Path_412" data-name="Path 412" d="M254.895,83.315h7.253c3.915,0,6.623,1.814,6.623,5.995,0,4.3-2.32,6.187-6.454,6.187h-2.683v6.043h-4.739Zm4.739,8.364h.8c1.717,0,3.409,0,3.409-2.225,0-2.3-1.57-2.32-3.409-2.32h-.8Z" transform="translate(-99.371 -82.831)" fill="#fff"/>
    </g>
    <g id="Group_346" data-name="Group 346" transform="translate(160.716 105.123)">
      <path id="Path_413" data-name="Path 413" d="M154.083,102.484a6.274,6.274,0,0,0-10.4,4.895,6.208,6.208,0,0,0,10.4,4.77v2.324a8.562,8.562,0,0,1-4.144,1.108,8.167,8.167,0,0,1-8.224-8.139,8.294,8.294,0,0,1,8.391-8.307,7.622,7.622,0,0,1,3.976,1.067Z" transform="translate(-141.716 -98.801)" fill="#fff"/>
      <path id="Path_414" data-name="Path 414" d="M155.049,111.385l-1.8,3.954h-2.113l7.531-16.445,7.532,16.445h-2.113l-1.8-3.954Zm3.619-8.181-2.8,6.382h5.608Z" transform="translate(-138.102 -98.894)" fill="#fff"/>
      <path id="Path_415" data-name="Path 415" d="M164.943,115.153h-1.967V99.378h2.259c4.856,0,6.362,1.674,6.362,4.562,0,3.326-2.532,4.6-5.523,4.6h-1.13Zm0-8.369h.628c2.008,0,4.184-.378,4.184-2.886,0-2.47-2.342-2.763-4.289-2.763h-.523Z" transform="translate(-133.562 -98.708)" fill="#fff"/>
      <path id="Path_416" data-name="Path 416" d="M172.383,115.153h-1.966V99.378h1.966Z" transform="translate(-130.708 -98.708)" fill="#fff"/>
      <path id="Path_417" data-name="Path 417" d="M178.623,115.153h-1.966V101.177h-3.745v-1.8h9.457v1.8h-3.745Z" transform="translate(-129.751 -98.708)" fill="#fff"/>
      <path id="Path_418" data-name="Path 418" d="M182.359,111.385l-1.8,3.954h-2.114l7.533-16.445,7.531,16.445H191.4l-1.8-3.954Zm3.622-8.181-2.806,6.382h5.607Z" transform="translate(-127.628 -98.894)" fill="#fff"/>
      <path id="Path_419" data-name="Path 419" d="M192.254,113.355h4.793v1.8h-6.757V99.378h1.965Z" transform="translate(-123.086 -98.708)" fill="#fff"/>
      <path id="Path_420" data-name="Path 420" d="M215.15,107.295v.628a7.328,7.328,0,0,1-7.468,7.659,8.225,8.225,0,0,1,.208-16.446,8.272,8.272,0,0,1,6.424,3.055l-1.381,1.317a6.221,6.221,0,0,0-11.258,3.831,6.444,6.444,0,0,0,6.13,6.443c2.449,0,5.085-2.114,5.169-4.686h-4.079v-1.8Z" transform="translate(-119.474 -98.801)" fill="#fff"/>
      <path id="Path_421" data-name="Path 421" d="M222.086,115.153H219.7l-4.646-6.674h-.816v6.674h-1.966V99.378h2.385a8.35,8.35,0,0,1,4.164.732,4.37,4.37,0,0,1,2.071,3.767,4.3,4.3,0,0,1-3.788,4.415Zm-7.846-8.307h.628c2.009,0,4.185-.375,4.185-2.886,0-2.47-2.344-2.825-4.29-2.825h-.523Z" transform="translate(-114.654 -98.708)" fill="#fff"/>
      <path id="Path_422" data-name="Path 422" d="M236.212,107.358a8.265,8.265,0,0,1-16.529,0,8.265,8.265,0,0,1,16.529,0Zm-1.966,0a6.3,6.3,0,1,0-12.6,0,6.3,6.3,0,1,0,12.6,0Z" transform="translate(-111.812 -98.801)" fill="#fff"/>
      <path id="Path_423" data-name="Path 423" d="M238.285,110.769l4.455-11.633,4.456,11.633,4.415-11.3h2.135l-6.55,16.4L242.74,104.3l-4.455,11.569-6.552-16.4h2.136Z" transform="translate(-107.191 -98.801)" fill="#fff"/>
      <path id="Path_424" data-name="Path 424" d="M253.187,115.153h-1.966V101.177h-3.744v-1.8h9.455v1.8h-3.745Z" transform="translate(-101.152 -98.708)" fill="#fff"/>
      <path id="Path_425" data-name="Path 425" d="M264.786,105.738v-6.36h1.966v15.775h-1.966V107.58h-7.511v7.574h-1.966V99.378h1.966v6.36Z" transform="translate(-98.148 -98.708)" fill="#fff"/>
    </g>
    <g id="Group_347" data-name="Group 347" transform="translate(92.179 82.653)">
      <path id="Path_426" data-name="Path 426" d="M126.191,82.653a18.4,18.4,0,0,0-9.578,2.676,19.866,19.866,0,0,1,3.438,3.3,13.968,13.968,0,1,1-5.407,4.7,12.8,12.8,0,0,0-3.439-3.016,18.5,18.5,0,1,0,14.987-7.658Z" transform="translate(-86.23 -82.653)" fill="#fff"/>
      <path id="Path_427" data-name="Path 427" d="M129.183,101.155c0-.455-.022-.9-.054-1.353-.008-.09-.014-.18-.021-.27-.039-.444-.091-.884-.161-1.319-.007-.037-.014-.075-.021-.115-.073-.439-.162-.87-.266-1.3-.006-.028-.011-.053-.017-.077q-.17-.691-.392-1.356l-.007-.022a18.549,18.549,0,0,0-7.984-10.02h0l-.021-.011c-.306-.185-.618-.36-.935-.526-.091-.048-.184-.094-.277-.141q-.384-.2-.78-.374c-.083-.036-.163-.076-.246-.111-.339-.145-.682-.284-1.031-.41-.064-.022-.129-.043-.192-.066-.292-.1-.585-.194-.883-.282-.1-.03-.209-.061-.314-.089-.3-.084-.61-.159-.919-.228l-.19-.043c-.368-.076-.742-.141-1.118-.2-.1-.015-.192-.026-.288-.036-.295-.04-.589-.069-.888-.094-.109-.01-.22-.018-.331-.025-.386-.026-.776-.042-1.169-.042s-.807.018-1.205.046l-.227.015a18.5,18.5,0,1,0,11.014,34.272,19.96,19.96,0,0,1-3.451-3.314,13.94,13.94,0,1,1-11.19-25.507h0a14.233,14.233,0,0,1,2.434-.71c.064-.011.129-.018.191-.029.358-.065.717-.122,1.082-.159.446-.043.9-.069,1.352-.069.428,0,.847.026,1.263.065.087.008.176.014.263.024.361.039.715.1,1.068.165.156.03.313.062.468.1.235.053.466.113.7.18.286.08.57.169.848.268.073.025.145.054.219.079.441.166.876.35,1.295.558a14.006,14.006,0,0,1,5.426,4.692l-.01.01c.18.263.349.534.511.809l.039.062c.138.239.266.486.39.732.057.112.111.227.165.342.1.221.2.446.3.674.079.2.149.4.217.594.094.264.178.527.256.8s.149.54.21.815c.035.152.062.307.09.461q.079.419.131.848c.017.133.033.271.048.408.037.419.065.845.066,1.277,0,.17-.022.336-.026.506h0a13.849,13.849,0,0,1-2.4,7.312A12.785,12.785,0,0,0,125.662,112a18.376,18.376,0,0,0,3.5-10.334h.008C129.175,101.493,129.183,101.324,129.183,101.155Z" transform="translate(-92.179 -82.653)" fill="#fff"/>
    </g>
  </g>
</svg>
