<svg xmlns="http://www.w3.org/2000/svg" xmlns:xlink="http://www.w3.org/1999/xlink" width="206" height="192" viewBox="0 0 206 192">
  <defs>
    <linearGradient id="linear-gradient" y1="0.01" x2="0.694" y2="0.657" gradientUnits="objectBoundingBox">
      <stop offset="0" stop-color="#97df79"/>
      <stop offset="1" stop-color="#7bce76"/>
    </linearGradient>
    <filter id="Rectangle_169" x="0" y="0" width="206" height="192" filterUnits="userSpaceOnUse">
      <feOffset input="SourceAlpha"/>
      <feGaussianBlur stdDeviation="6" result="blur"/>
      <feFlood flood-opacity="0.161"/>
      <feComposite operator="in" in2="blur"/>
      <feComposite in="SourceGraphic"/>
    </filter>
    <clipPath id="clip-path">
      <rect id="Rectangle_170" data-name="Rectangle 170" width="170" height="156" rx="8" transform="translate(9677 3307)" fill="#fff"/>
    </clipPath>
  </defs>
  <g id="Group_566" data-name="Group 566" transform="translate(-6753 17537)">
    <g id="Group_558" data-name="Group 558" transform="translate(-3225 -20626)">
      <g transform="matrix(1, 0, 0, 1, 9978, 3089)" filter="url(#Rectangle_169)">
        <path id="Rectangle_169-2" data-name="Rectangle 169" d="M8,0H170a0,0,0,0,1,0,0V156a0,0,0,0,1,0,0H8a8,8,0,0,1-8-8V8A8,8,0,0,1,8,0Z" transform="translate(18 18)" fill="url(#linear-gradient)"/>
      </g>
      <g id="Mask_Group_8" data-name="Mask Group 8" transform="translate(319 -200)" clip-path="url(#clip-path)">
        <g id="Group_360" data-name="Group 360" transform="translate(-331 -21)">
          <g id="Group_293" data-name="Group 293" transform="translate(9998.143 3372.159)" opacity="0.11">
            <path id="Path_368" data-name="Path 368" d="M2578.484-561.924a29.957,29.957,0,0,1-7.131,19.427,21.473,21.473,0,0,1-5.6-3.8,23.27,23.27,0,0,0,6.01-15.625,23.27,23.27,0,0,0-6.01-15.625q-.645-.713-1.345-1.374a23.345,23.345,0,0,0-5.606-3.913c-.605-.3-1.225-.581-1.859-.829a23.226,23.226,0,0,0-8.536-1.617,23.383,23.383,0,0,0-23.357,23.357,23.383,23.383,0,0,0,23.357,23.356,23.227,23.227,0,0,0,8.536-1.616,32.257,32.257,0,0,0,5.606,4.8,29.881,29.881,0,0,1-14.143,3.538,30.115,30.115,0,0,1-30.082-30.082,30.115,30.115,0,0,1,30.082-30.082,29.88,29.88,0,0,1,14.143,3.538q.951.508,1.859,1.081a30.269,30.269,0,0,1,5.606,4.552q.7.721,1.343,1.484A29.957,29.957,0,0,1,2578.484-561.924Z" transform="translate(-2518.32 592.006)" fill="#fff"/>
            <path id="Path_369" data-name="Path 369" d="M3588.763-561.924a30.115,30.115,0,0,1-30.082,30.082,29.882,29.882,0,0,1-14.143-3.538q-.951-.508-1.859-1.081a30.283,30.283,0,0,1-5.606-4.552c-.463-.48-.913-.975-1.343-1.484a29.957,29.957,0,0,1-7.131-19.427,29.957,29.957,0,0,1,7.131-19.427,21.471,21.471,0,0,1,5.6,3.8,23.271,23.271,0,0,0-6.01,15.625,23.271,23.271,0,0,0,6.01,15.625q.645.713,1.345,1.374a23.343,23.343,0,0,0,5.606,3.913c.605.3,1.225.581,1.859.829a23.228,23.228,0,0,0,8.537,1.616,23.382,23.382,0,0,0,23.356-23.356,23.382,23.382,0,0,0-23.356-23.357,23.227,23.227,0,0,0-8.537,1.617,32.257,32.257,0,0,0-5.606-4.8,29.881,29.881,0,0,1,14.143-3.538A30.115,30.115,0,0,1,3588.763-561.924Z" transform="translate(-3496.596 592.006)" fill="#fff"/>
          </g>
          <circle id="Ellipse_33" data-name="Ellipse 33" cx="5" cy="5" r="5" transform="translate(10134 3348)" fill="#fff" opacity="0.51"/>
          <circle id="Ellipse_36" data-name="Ellipse 36" cx="4.5" cy="4.5" r="4.5" transform="translate(10042 3434)" fill="#fff" opacity="0.17"/>
          <ellipse id="Ellipse_34" data-name="Ellipse 34" cx="11.5" cy="11" rx="11.5" ry="11" transform="translate(10059 3445)" fill="#fff" opacity="0.07"/>
          <ellipse id="Ellipse_35" data-name="Ellipse 35" cx="11.5" cy="12" rx="11.5" ry="12" transform="translate(10067 3370)" fill="#fff" opacity="0.07"/>
          <path id="Path_370" data-name="Path 370" d="M-8396.463-990v68.756" transform="translate(18523.217 4439.118)" fill="none" stroke="#fff" stroke-linecap="round" stroke-width="12" opacity="0.19"/>
          <path id="Path_371" data-name="Path 371" d="M-8396.463-990v68.756" transform="translate(18542.652 4415.179)" fill="none" stroke="#fff" stroke-linecap="round" stroke-width="12" opacity="0.1"/>
        </g>
      </g>
    </g>
    <text id="PARTNERSHIP" transform="translate(6800 -17416)" fill="#fff" font-size="16" font-family="Poppins-SemiBold, Poppins" font-weight="600" letter-spacing="0.036em"><tspan x="0" y="0">PARTNERSHIP</tspan></text>
    <g id="noun_Partnerships_729749" transform="translate(6803.843 -17533.086)">
      <path id="Path_6391" data-name="Path 6391" d="M77.191,68.607l-4.058-5.1a3.742,3.742,0,0,0-4.945-.837h0l-3.373,2.1a3.585,3.585,0,0,1-3.6.1l-2.688-1.5a5.7,5.7,0,0,0-5.883.2l-.634.406-.609-.38a7.079,7.079,0,0,0-6.847-.3l-.938.482a6.188,6.188,0,0,1-5.731-.152l-.634-.355a4.573,4.573,0,0,0-5.655.964l-4.489,5.1a3.716,3.716,0,0,0-.938,2.79,3.772,3.772,0,0,0,1.344,2.612l4.007,3.373-1.8,1.927a3.717,3.717,0,0,0-.989,2.637A3.618,3.618,0,0,0,29.9,85.243h0a3.927,3.927,0,0,0,1.724.913,3.669,3.669,0,0,0,.837,4.21h0a3.657,3.657,0,0,0,2.511.989,3.389,3.389,0,0,0,1.319-.254,3.682,3.682,0,0,0,1.065,1.877h0a3.657,3.657,0,0,0,2.511.989,3.789,3.789,0,0,0,1.877-.507,3.408,3.408,0,0,0,.989,1.6h0a3.657,3.657,0,0,0,2.511.989,3.6,3.6,0,0,0,2.688-1.167L49.5,93.206l2.485,2.079a3.542,3.542,0,0,0,2.206.811,3.432,3.432,0,0,0,2.561-1.141,3.1,3.1,0,0,0,.735-1.319l.761.685a3.763,3.763,0,0,0,5.224-.254,3.7,3.7,0,0,0,.938-1.953A3.588,3.588,0,0,0,68.975,87.8a3.3,3.3,0,0,0,1.927-1.09,3.433,3.433,0,0,0,.888-2.536A3.35,3.35,0,0,0,70.6,81.794l-.279-.254,6.72-7.633A4.107,4.107,0,0,0,77.191,68.607ZM31.266,83.747a1.725,1.725,0,0,1-.533-1.167,1.661,1.661,0,0,1,.456-1.217l3.981-4.26a1.656,1.656,0,0,1,2.358-.076,1.725,1.725,0,0,1,.533,1.167,1.7,1.7,0,0,1-.456,1.217l-3.981,4.26a1.676,1.676,0,0,1-1.167.533,1.754,1.754,0,0,1-1.192-.456ZM33.8,88.869a1.725,1.725,0,0,1-.533-1.167,1.661,1.661,0,0,1,.456-1.217l5.452-5.833a1.686,1.686,0,0,1,2.46,2.308l-1.116,1.192h0L39,85.775l-2.84,3.018A1.676,1.676,0,0,1,33.8,88.869ZM38.7,91.481a1.725,1.725,0,0,1-.533-1.167A1.661,1.661,0,0,1,38.62,89.1l1.851-1.978L41.993,85.5a1.686,1.686,0,0,1,2.46,2.308l-.431.456-1.471,1.572h0L41.08,91.405A1.708,1.708,0,0,1,38.7,91.481Zm7.785,2a1.686,1.686,0,0,1-2.46-2.308l1.9-2.029h0a1.686,1.686,0,0,1,2.46,2.308Zm22.976-8.14a1.43,1.43,0,0,1-1.014.482,1.492,1.492,0,0,1-1.065-.38L60.53,79.055a1,1,0,1,0-1.369,1.471l7.43,7a1.618,1.618,0,0,1,.1,2.232,1.578,1.578,0,0,1-2.257.1l-1.192-1.09-.025-.025-5.782-5.224a1.006,1.006,0,1,0-1.344,1.5l5.782,5.249a1.761,1.761,0,0,1,.558,1.192,1.822,1.822,0,0,1-.456,1.268,1.747,1.747,0,0,1-2.435.127l-3.094-2.739-.025-.025L53.506,87.4a1.006,1.006,0,0,0-1.344,1.5l2.967,2.637a1.476,1.476,0,0,1,.482.989,1.334,1.334,0,0,1-.38,1.04,1.434,1.434,0,0,1-2,.127l-2.637-2.206a3.683,3.683,0,0,0-3.6-4.894h-.127A3.541,3.541,0,0,0,45.7,83.924a3.693,3.693,0,0,0-1.851-.938,3.614,3.614,0,0,0-.964-3.905,3.711,3.711,0,0,0-2.866-.964h0a3.52,3.52,0,0,0-1.167-2.561,3.661,3.661,0,0,0-5.2.178l-.811.888L28.755,73.2a1.747,1.747,0,0,1-.634-1.217,1.925,1.925,0,0,1,.431-1.319l4.514-5.123a2.554,2.554,0,0,1,3.17-.533l.634.355a8.107,8.107,0,0,0,7.582.2l.964-.482a5.084,5.084,0,0,1,4.717.1l-1.927,1.243a3.789,3.789,0,0,0,3.753,6.568l1.471-.735a3.134,3.134,0,0,1,3.424.406l11.336,9.687h0l1.065.913a1.41,1.41,0,0,1,.507,1.014A1.2,1.2,0,0,1,69.457,85.344Zm6.112-12.781-6.746,7.659L58.248,71.168a5.072,5.072,0,0,0-3.322-1.217,4.994,4.994,0,0,0-2.308.558l-1.471.735a1.781,1.781,0,0,1-2.536-1.953,1.872,1.872,0,0,1,.786-1.167l4.362-2.866a3.654,3.654,0,0,1,3.829-.127l2.688,1.5a5.531,5.531,0,0,0,5.63-.152l3.373-2.1a1.74,1.74,0,0,1,2.308.406l4.058,5.1A2.107,2.107,0,0,1,75.568,72.563Z" fill="#fff"/>
    </g>
  </g>
</svg>
