<svg xmlns="http://www.w3.org/2000/svg" width="13.564" height="13.592" viewBox="0 0 13.564 13.592">
  <g id="phone-call" transform="translate(-0.539)" opacity="0.9">
    <g id="Group_350" data-name="Group 350" transform="translate(0.539 0)">
      <path id="Path_452" data-name="Path 452" d="M13.747,9.975l-1.9-1.9a1.262,1.262,0,0,0-2.1.474,1.291,1.291,0,0,1-1.49.813A5.849,5.849,0,0,1,4.737,5.843a1.228,1.228,0,0,1,.813-1.49,1.262,1.262,0,0,0,.474-2.1l-1.9-1.9A1.353,1.353,0,0,0,2.3.356L1.011,1.643C-.276,3,1.147,6.588,4.331,9.772s6.774,4.674,8.129,3.319L13.747,11.8A1.353,1.353,0,0,0,13.747,9.975Z" transform="translate(-0.539 0)" fill="#fff"/>
    </g>
  </g>
</svg>
