<svg xmlns="http://www.w3.org/2000/svg" xmlns:xlink="http://www.w3.org/1999/xlink" width="170" height="156" viewBox="0 0 170 156">
  <defs>
    <linearGradient id="linear-gradient" y1="0.01" x2="0.694" y2="0.657" gradientUnits="objectBoundingBox">
      <stop offset="0" stop-color="#97df79"/>
      <stop offset="1" stop-color="#7bce76"/>
    </linearGradient>
    <clipPath id="clip-path">
      <rect id="Rectangle_170" data-name="Rectangle 170" width="170" height="156" rx="8" transform="translate(9677 3307)" fill="#fff"/>
    </clipPath>
  </defs>
  <g id="Group_622" data-name="Group 622" transform="translate(-22797 2559)">
    <path id="Rectangle_169" data-name="Rectangle 169" d="M8,0H170a0,0,0,0,1,0,0V156a0,0,0,0,1,0,0H8a8,8,0,0,1-8-8V8A8,8,0,0,1,8,0Z" transform="translate(22797 -2559)" fill="url(#linear-gradient)"/>
    <g id="Mask_Group_8" data-name="Mask Group 8" transform="translate(13120 -5866)" clip-path="url(#clip-path)">
      <g id="Group_360" data-name="Group 360" transform="translate(-331 -21)">
        <g id="Group_293" data-name="Group 293" transform="translate(9998.143 3372.159)" opacity="0.11">
          <path id="Path_368" data-name="Path 368" d="M2578.484-561.924a29.957,29.957,0,0,1-7.131,19.427,21.473,21.473,0,0,1-5.6-3.8,23.27,23.27,0,0,0,6.01-15.625,23.27,23.27,0,0,0-6.01-15.625q-.645-.713-1.345-1.374a23.345,23.345,0,0,0-5.606-3.913c-.605-.3-1.225-.581-1.859-.829a23.226,23.226,0,0,0-8.536-1.617,23.383,23.383,0,0,0-23.357,23.357,23.383,23.383,0,0,0,23.357,23.356,23.227,23.227,0,0,0,8.536-1.616,32.257,32.257,0,0,0,5.606,4.8,29.881,29.881,0,0,1-14.143,3.538,30.115,30.115,0,0,1-30.082-30.082,30.115,30.115,0,0,1,30.082-30.082,29.88,29.88,0,0,1,14.143,3.538q.951.508,1.859,1.081a30.269,30.269,0,0,1,5.606,4.552q.7.721,1.343,1.484A29.957,29.957,0,0,1,2578.484-561.924Z" transform="translate(-2518.32 592.006)" fill="#fff"/>
          <path id="Path_369" data-name="Path 369" d="M3588.763-561.924a30.115,30.115,0,0,1-30.082,30.082,29.882,29.882,0,0,1-14.143-3.538q-.951-.508-1.859-1.081a30.283,30.283,0,0,1-5.606-4.552c-.463-.48-.913-.975-1.343-1.484a29.957,29.957,0,0,1-7.131-19.427,29.957,29.957,0,0,1,7.131-19.427,21.471,21.471,0,0,1,5.6,3.8,23.271,23.271,0,0,0-6.01,15.625,23.271,23.271,0,0,0,6.01,15.625q.645.713,1.345,1.374a23.343,23.343,0,0,0,5.606,3.913c.605.3,1.225.581,1.859.829a23.228,23.228,0,0,0,8.537,1.616,23.382,23.382,0,0,0,23.356-23.356,23.382,23.382,0,0,0-23.356-23.357,23.227,23.227,0,0,0-8.537,1.617,32.257,32.257,0,0,0-5.606-4.8,29.881,29.881,0,0,1,14.143-3.538A30.115,30.115,0,0,1,3588.763-561.924Z" transform="translate(-3496.596 592.006)" fill="#fff"/>
        </g>
        <circle id="Ellipse_33" data-name="Ellipse 33" cx="5" cy="5" r="5" transform="translate(10134 3348)" fill="#fff" opacity="0.51"/>
        <circle id="Ellipse_36" data-name="Ellipse 36" cx="4.5" cy="4.5" r="4.5" transform="translate(10042 3434)" fill="#fff" opacity="0.17"/>
        <ellipse id="Ellipse_34" data-name="Ellipse 34" cx="11.5" cy="11" rx="11.5" ry="11" transform="translate(10059 3445)" fill="#fff" opacity="0.07"/>
        <ellipse id="Ellipse_35" data-name="Ellipse 35" cx="11.5" cy="12" rx="11.5" ry="12" transform="translate(10067 3370)" fill="#fff" opacity="0.07"/>
        <path id="Path_370" data-name="Path 370" d="M-8396.463-990v68.756" transform="translate(18523.217 4439.118)" fill="none" stroke="#fff" stroke-linecap="round" stroke-width="12" opacity="0.19"/>
        <path id="Path_371" data-name="Path 371" d="M-8396.463-990v68.756" transform="translate(18542.652 4415.179)" fill="none" stroke="#fff" stroke-linecap="round" stroke-width="12" opacity="0.1"/>
      </g>
    </g>
    <path id="Path_6445" data-name="Path 6445" d="M5.631,0a5.655,5.655,0,1,0,5.631,5.655A5.648,5.648,0,0,0,5.631,0Zm0,8.4A2.743,2.743,0,1,1,8.349,5.655,2.735,2.735,0,0,1,5.631,8.4Z" transform="translate(22900.186 -2472.023) rotate(90)" fill="#fff"/>
    <path id="Path_6443" data-name="Path 6443" d="M10.621.428a1.458,1.458,0,0,0-2.063,0L5.525,3.462,2.491.428A1.459,1.459,0,0,0,.428,2.491L3.462,5.525.428,8.558a1.456,1.456,0,0,0,1.032,2.488,1.482,1.482,0,0,0,1.031-.425L5.525,7.588l3.034,3.034a1.461,1.461,0,0,0,1.032.425,1.482,1.482,0,0,0,1.031-.425,1.457,1.457,0,0,0,0-2.063L7.588,5.525l3.034-3.034A1.457,1.457,0,0,0,10.621.428Z" transform="translate(22869.945 -2472.023) rotate(90)" fill="#fff"/>
    <path id="Path_6446" data-name="Path 6446" d="M10.621.428a1.458,1.458,0,0,0-2.063,0L5.525,3.462,2.491.428A1.459,1.459,0,0,0,.428,2.491L3.462,5.525.428,8.558a1.456,1.456,0,0,0,1.032,2.488,1.482,1.482,0,0,0,1.031-.425L5.525,7.588l3.034,3.034a1.461,1.461,0,0,0,1.032.425,1.482,1.482,0,0,0,1.031-.425,1.457,1.457,0,0,0,0-2.063L7.588,5.525l3.034-3.034A1.457,1.457,0,0,0,10.621.428Z" transform="translate(22884.934 -2472.023) rotate(90)" fill="#fff"/>
    <path id="Path_6441" data-name="Path 6441" d="M5.631,0a5.655,5.655,0,1,0,5.631,5.655A5.648,5.648,0,0,0,5.631,0Zm0,8.4A2.743,2.743,0,1,1,8.349,5.655,2.735,2.735,0,0,1,5.631,8.4Z" transform="translate(22885.197 -2487.011) rotate(90)" fill="#fff"/>
    <path id="Path_6442" data-name="Path 6442" d="M8.558,10.621a1.461,1.461,0,0,0,1.031.425,1.482,1.482,0,0,0,1.031-.425,1.457,1.457,0,0,0,0-2.063L7.588,5.525l3.034-3.034A1.459,1.459,0,0,0,8.558.428L5.525,3.462,2.491.428A1.459,1.459,0,0,0,.428,2.491L3.462,5.525.428,8.558a1.456,1.456,0,0,0,1.032,2.488,1.482,1.482,0,0,0,1.032-.425L5.525,7.588Z" transform="translate(22899.92 -2487.011) rotate(90)" fill="#fff"/>
    <path id="Path_6444" data-name="Path 6444" d="M10.621.428a1.458,1.458,0,0,0-2.063,0L5.525,3.462,2.491.428A1.459,1.459,0,0,0,.428,2.491L3.462,5.525.428,8.558a1.456,1.456,0,0,0,1.032,2.488,1.482,1.482,0,0,0,1.032-.425L5.525,7.588l3.034,3.034a1.461,1.461,0,0,0,1.032.425,1.482,1.482,0,0,0,1.031-.425,1.458,1.458,0,0,0,0-2.063L7.588,5.525l3.034-3.034A1.48,1.48,0,0,0,10.621.428Z" transform="translate(22869.945 -2487.012) rotate(90)" fill="#fff"/>
    <path id="Path_6447" data-name="Path 6447" d="M5.631,0a5.655,5.655,0,1,0,5.631,5.655A5.648,5.648,0,0,0,5.631,0Zm0,8.4A2.743,2.743,0,1,1,8.349,5.655,2.735,2.735,0,0,1,5.631,8.4Z" transform="translate(22870.209 -2502) rotate(90)" fill="#fff"/>
    <path id="Path_6448" data-name="Path 6448" d="M10.621.428a1.458,1.458,0,0,0-2.063,0L5.525,3.462,2.491.428A1.459,1.459,0,0,0,.428,2.491L3.462,5.525.428,8.558a1.456,1.456,0,0,0,1.032,2.488,1.482,1.482,0,0,0,1.032-.425L5.525,7.588l3.034,3.034a1.461,1.461,0,0,0,1.032.425,1.482,1.482,0,0,0,1.031-.425,1.458,1.458,0,0,0,0-2.063L7.588,5.525l3.034-3.034A1.48,1.48,0,0,0,10.621.428Z" transform="translate(22884.934 -2502) rotate(90)" fill="#fff"/>
    <path id="Path_6449" data-name="Path 6449" d="M10.621.428a1.458,1.458,0,0,0-2.063,0L5.525,3.462,2.491.428A1.459,1.459,0,0,0,.428,2.491L3.462,5.525.428,8.558a1.456,1.456,0,0,0,1.032,2.488,1.482,1.482,0,0,0,1.032-.425L5.525,7.588l3.034,3.034a1.461,1.461,0,0,0,1.032.425,1.482,1.482,0,0,0,1.031-.425,1.458,1.458,0,0,0,0-2.063L7.588,5.525l3.034-3.034A1.48,1.48,0,0,0,10.621.428Z" transform="translate(22899.922 -2502) rotate(90)" fill="#fff"/>
  </g>
</svg>
