<svg width="296" height="72" viewBox="0 0 296 72" fill="none" xmlns="http://www.w3.org/2000/svg">
<g clip-path="url(#clip0_1951_5832)">
<path d="M14.6353 -42H311V115H14.6353C10.7538 115 7.03123 114.157 4.28658 112.657C1.54193 111.157 0 109.122 0 107V-34C0 -36.1217 1.54193 -38.1566 4.28658 -39.6569C7.03123 -41.1571 10.7538 -42 14.6353 -42Z" fill="url(#paint0_linear_1951_5832)"/>
<mask id="mask0_1951_5832" style="mask-type:luminance" maskUnits="userSpaceOnUse" x="0" y="0" width="296" height="72">
<path d="M288 0H8C3.58172 0 0 3.58172 0 8V64C0 68.4183 3.58172 72 8 72H288C292.418 72 296 68.4183 296 64V8C296 3.58172 292.418 0 288 0Z" fill="white"/>
</mask>
<g mask="url(#mask0_1951_5832)">
<g opacity="0.11">
<path d="M110.759 40.44C110.743 46.1284 108.616 51.6085 104.791 55.819C103.081 55.0645 101.499 54.049 100.101 52.809C103.312 49.4902 105.114 45.0577 105.13 40.44C105.114 35.8222 103.312 31.3897 100.101 28.071C99.7411 27.6943 99.3658 27.3317 98.9751 26.983C97.5682 25.7295 95.9881 24.6854 94.2832 23.8829C93.7762 23.6429 93.2581 23.4229 92.7271 23.2269C90.4413 22.377 88.0219 21.9435 85.5833 21.947C74.8043 21.947 66.0361 30.241 66.0361 40.437C66.0361 50.633 74.8053 58.927 85.5833 58.927C88.0219 58.9303 90.4413 58.4969 92.7271 57.647C94.1421 59.0872 95.7164 60.362 97.4192 61.447C93.7487 63.2976 89.6938 64.2568 85.5833 64.247C71.7013 64.247 60.4082 53.564 60.4082 40.433C60.4082 27.302 71.7013 16.619 85.5833 16.619C89.6938 16.6091 93.7487 17.5684 97.4192 19.419C97.9525 19.6856 98.4711 19.971 98.9751 20.275C100.675 21.2861 102.25 22.4944 103.667 23.875C104.055 24.255 104.431 24.647 104.791 25.05C108.619 29.2633 110.745 34.7477 110.759 40.44Z" fill="white"/>
<path d="M137.542 40.44C137.542 53.572 126.249 64.254 112.367 64.254C108.257 64.2638 104.202 63.3045 100.531 61.4541C99.9979 61.1874 99.4793 60.902 98.9753 60.598C97.2751 59.5869 95.7001 58.3785 94.2832 56.9981C93.8952 56.6181 93.5205 56.2263 93.1592 55.823C89.3342 51.6125 87.2078 46.1325 87.1914 40.444C87.2077 34.7556 89.3341 29.2755 93.1592 25.065C94.8686 25.8196 96.4506 26.835 97.8484 28.075C94.6376 31.3939 92.8354 35.8263 92.8193 40.444C92.8354 45.0618 94.6376 49.4942 97.8484 52.8131C98.2091 53.1897 98.5844 53.5523 98.9744 53.901C100.381 55.1544 101.961 56.1985 103.665 57.001C104.172 57.241 104.69 57.4611 105.221 57.6571C107.507 58.5069 109.927 58.9404 112.365 58.937C123.143 58.937 131.912 50.643 131.912 40.447C131.912 30.251 123.144 21.957 112.365 21.957C109.927 21.9536 107.507 22.3871 105.221 23.237C103.806 21.7967 102.232 20.5219 100.529 19.437C104.2 17.5865 108.255 16.6273 112.365 16.637C126.248 16.626 137.542 27.309 137.542 40.44Z" fill="white"/>
</g>
<path opacity="0.51" d="M231.5 15C233.985 15 236 13.2091 236 11C236 8.79086 233.985 7 231.5 7C229.015 7 227 8.79086 227 11C227 13.2091 229.015 15 231.5 15Z" fill="white"/>
<path opacity="0.17" d="M101 73C103.209 73 105 71.433 105 69.5C105 67.567 103.209 66 101 66C98.7909 66 97 67.567 97 69.5C97 71.433 98.7909 73 101 73Z" fill="white"/>
<path opacity="0.07" d="M127.5 34C132.747 34 137 29.7467 137 24.5C137 19.2533 132.747 15 127.5 15C122.253 15 118 19.2533 118 24.5C118 29.7467 122.253 34 127.5 34Z" fill="white"/>
<path opacity="0.19" d="M206.537 53.009V107.44" stroke="white" stroke-width="12" stroke-linecap="round"/>
<path opacity="0.1" d="M222.804 34.0581V88.4891" stroke="white" stroke-width="12" stroke-linecap="round"/>
</g>
</g>
<defs>
<linearGradient id="paint0_linear_1951_5832" x1="-2.77458e-06" y1="-40.43" x2="91.4701" y2="128.491" gradientUnits="userSpaceOnUse">
<stop stop-color="#97DF79"/>
<stop offset="1" stop-color="#7BCE76"/>
</linearGradient>
<clipPath id="clip0_1951_5832">
<rect width="296" height="72" rx="10" fill="white"/>
</clipPath>
</defs>
</svg>
