<svg xmlns="http://www.w3.org/2000/svg" width="45" height="45" viewBox="0 0 45 45">
  <g id="Group_357" data-name="Group 357" transform="translate(-7476 -2623)">
    <g id="Ellipse_786" data-name="Ellipse 786" transform="translate(7476 2623)" fill="none" stroke="#fff" stroke-width="2">
      <circle cx="22.5" cy="22.5" r="22.5" stroke="none"/>
      <circle cx="22.5" cy="22.5" r="21.5" fill="none"/>
    </g>
    <path id="Icon_awesome-twitter" data-name="Icon awesome-twitter" d="M18.663,7.591c.013.185.013.37.013.554a12.046,12.046,0,0,1-12.13,12.13A12.047,12.047,0,0,1,0,18.361a8.819,8.819,0,0,0,1.029.053,8.538,8.538,0,0,0,5.293-1.821,4.271,4.271,0,0,1-3.986-2.957,5.376,5.376,0,0,0,.805.066,4.509,4.509,0,0,0,1.122-.145A4.264,4.264,0,0,1,.845,9.373V9.32a4.293,4.293,0,0,0,1.927.541,4.269,4.269,0,0,1-1.32-5.7,12.118,12.118,0,0,0,8.79,4.461,4.813,4.813,0,0,1-.106-.977,4.267,4.267,0,0,1,7.378-2.917A8.393,8.393,0,0,0,20.22,3.7a4.252,4.252,0,0,1-1.874,2.349,8.546,8.546,0,0,0,2.455-.66,9.164,9.164,0,0,1-2.138,2.2Z" transform="translate(7488.199 2634.172)" fill="#fff"/>
  </g>
</svg>
