<svg xmlns="http://www.w3.org/2000/svg" width="393" height="350" viewBox="0 0 393 350">
    <defs>
        <linearGradient id="linear-gradient" x2=".694" y1=".01" y2=".657" gradientUnits="objectBoundingBox">
            <stop offset="0" stop-color="#97df79"/>
            <stop offset="1" stop-color="#7bce76"/>
        </linearGradient>
        <clipPath id="clip-path">
            <rect id="Rectangle_170" width="357" height="313" class="cls-1" rx="12"/>
        </clipPath>
        <filter id="Rectangle_169" width="393" height="350" x="0" y="0" filterUnits="userSpaceOnUse">
            <feOffset/>
            <feGaussianBlur result="blur" stdDeviation="6"/>
            <feFlood flood-opacity=".161"/>
            <feComposite in2="blur" operator="in"/>
            <feComposite in="SourceGraphic"/>
        </filter>
        <style>
            .cls-1,.cls-7{fill:#fff}.cls-7{opacity:.07}
        </style>
    </defs>
    <g id="Group_432" transform="translate(8224 1048)">
        <g filter="url(#Rectangle_169)" transform="translate(-8224 -1048)">
            <rect id="Rectangle_169-2" width="357" height="314" fill="url(#linear-gradient)" rx="12" transform="translate(18 18)"/>
        </g>
        <g id="Mask_Group_2" clip-path="url(#clip-path)" transform="translate(-8206.5 -1030)">
            <g id="Group_294" transform="translate(-39.612 -17)">
                <g id="Group_293" opacity="0.11" transform="translate(0 71.339)">
                    <path id="Path_368" d="M2690.669-513.556c0 19.293-7.693 36.982-20.429 50.663a62.136 62.136 0 0 1-16.052-9.916c10.692-10.8 17.215-25.094 17.215-40.747s-6.523-29.948-17.215-40.747q-1.848-1.86-3.854-3.583a67.35 67.35 0 0 0-16.06-10.2c-1.734-.789-3.509-1.516-5.326-2.161a72.333 72.333 0 0 0-24.454-4.216c-36.895 0-66.908 27.323-66.908 60.911s30.014 60.911 66.908 60.911a72.336 72.336 0 0 0 24.454-4.216 90.664 90.664 0 0 0 16.06 12.528 92.377 92.377 0 0 1-40.514 9.227c-47.518 0-86.174-35.191-86.174-78.45s38.656-78.45 86.174-78.45a92.376 92.376 0 0 1 40.514 9.227q2.724 1.325 5.325 2.819a85.691 85.691 0 0 1 16.06 11.87c1.328 1.253 2.615 2.543 3.846 3.871 12.737 13.676 20.43 31.366 20.43 50.659z" class="cls-1" transform="translate(-2518.32 592.006)"/>
                    <path id="Path_369" d="M3700.948-513.556c0 43.259-38.656 78.45-86.174 78.45a92.378 92.378 0 0 1-40.514-9.227q-2.725-1.325-5.326-2.819a85.688 85.688 0 0 1-16.06-11.87c-1.328-1.253-2.615-2.543-3.846-3.871-12.737-13.681-20.429-31.37-20.429-50.663s7.692-36.983 20.429-50.663a62.139 62.139 0 0 1 16.052 9.916c-10.692 10.8-17.215 25.094-17.215 40.747s6.523 29.948 17.215 40.747q1.847 1.86 3.853 3.583a67.364 67.364 0 0 0 16.06 10.2c1.734.789 3.51 1.516 5.326 2.161a72.335 72.335 0 0 0 24.454 4.216c36.895 0 66.908-27.323 66.908-60.911s-30.014-60.911-66.908-60.911a72.332 72.332 0 0 0-24.454 4.216 90.68 90.68 0 0 0-16.06-12.528 92.377 92.377 0 0 1 40.514-9.227c47.519.004 86.175 35.195 86.175 78.454z" class="cls-1" transform="translate(-3436.92 592.006)"/>
                </g>
                <ellipse id="Ellipse_33" cx="8" cy="7.5" fill="#fff" opacity="0.51" rx="8" ry="7.5" transform="translate(329.612 50)"/>
                <ellipse id="Ellipse_36" cx="8" cy="7.5" fill="#fff" opacity="0.17" rx="8" ry="7.5" transform="translate(124.612 235)"/>
                <ellipse id="Ellipse_34" cx="34" cy="31" class="cls-7" rx="34" ry="31" transform="translate(173.612 259)"/>
                <ellipse id="Ellipse_35" cx="34" cy="31" class="cls-7" rx="34" ry="31" transform="translate(195.612 65)"/>
                <path id="Path_370" fill="none" stroke="#fff" stroke-linecap="round" stroke-width="12px" d="M-8396.463-990v78.607" opacity="0.19" transform="translate(8729.97 1240.949)"/>
                <path id="Path_371" fill="none" stroke="#fff" stroke-linecap="round" stroke-width="12px" d="M-8396.463-990v78.607" opacity="0.1" transform="translate(8754.136 1240.949)"/>
            </g>
        </g>
    </g>
</svg>
