<svg xmlns="http://www.w3.org/2000/svg" xmlns:xlink="http://www.w3.org/1999/xlink" width="112.232" height="80.128" viewBox="0 0 112.232 80.128">
  <defs>
    <filter id="Union_11" x="4" y="4" width="108.232" height="76.128" filterUnits="userSpaceOnUse">
      <feOffset dx="2" dy="2" input="SourceAlpha"/>
      <feGaussianBlur stdDeviation="3" result="blur"/>
      <feFlood flood-opacity="0.161"/>
      <feComposite operator="in" in2="blur"/>
      <feComposite in="SourceGraphic"/>
    </filter>
    <filter id="Union_12" x="0" y="0" width="108.232" height="76.128" filterUnits="userSpaceOnUse">
      <feOffset dx="-2" dy="-2" input="SourceAlpha"/>
      <feGaussianBlur stdDeviation="3" result="blur-2"/>
      <feFlood flood-color="#fff" flood-opacity="0.831"/>
      <feComposite operator="in" in2="blur-2"/>
      <feComposite in="SourceGraphic"/>
    </filter>
  </defs>
  <g id="Group_915" data-name="Group 915" transform="translate(-497 -138.861)">
    <g id="Group_873" data-name="Group 873" transform="translate(-14834 -11881)">
      <g transform="matrix(1, 0, 0, 1, 15331, 12019.86)" filter="url(#Union_11)">
        <path id="Union_11-2" data-name="Union 11" d="M33.119,29.062a29.3,29.3,0,0,1,5.426-17.033,19.883,19.883,0,0,1,5.309,4.738,22.136,22.136,0,0,0-3.72,12.3,21.546,21.546,0,1,0,43.086,0A21.766,21.766,0,0,0,61.676,7.139,21.167,21.167,0,0,0,52.2,9.388,30.892,30.892,0,0,0,46.893,4.2,28.016,28.016,0,0,1,61.676,0,28.815,28.815,0,0,1,90.233,29.062c0,16.052-12.785,29.063-28.557,29.065S33.122,45.114,33.119,29.062ZM0,29.064A28.858,28.858,0,0,1,26.347.1c.117-.009.232-.017.35-.024C27.312.028,27.931,0,28.557,0c.607,0,1.209.024,1.8.065.171.011.341.024.511.039.461.039.915.085,1.371.148.147.015.3.033.444.057.581.085,1.157.187,1.725.307L34.7.683c.477.109.949.226,1.418.358.162.043.325.091.485.139.459.139.912.285,1.362.443.1.037.2.07.3.1.539.2,1.068.415,1.591.644.128.054.252.117.38.174q.612.277,1.2.587c.142.074.286.146.426.222.489.261.971.535,1.444.826l.031.017A29.048,29.048,0,0,1,55.668,19.936l.011.035q.338,1.047.6,2.131c.008.039.016.078.025.121.161.674.3,1.352.41,2.041.011.063.022.122.032.18.107.683.188,1.373.247,2.071.011.141.019.283.032.424.049.7.083,1.411.083,2.126,0,.265-.013.529-.019.795h-.013a29.2,29.2,0,0,1-5.4,16.233,19.841,19.841,0,0,1-5.312-4.747,22.027,22.027,0,0,0,3.7-11.486H50.06c.006-.267.039-.528.041-.795,0-.678-.045-1.348-.1-2.007-.024-.215-.05-.433-.076-.641-.053-.45-.121-.892-.2-1.332-.042-.241-.085-.485-.138-.724-.094-.433-.205-.859-.325-1.28s-.249-.836-.4-1.251c-.1-.311-.214-.626-.335-.933-.144-.359-.3-.711-.46-1.059-.083-.18-.166-.361-.254-.537-.192-.387-.389-.773-.6-1.149l-.059-.1c-.25-.433-.511-.859-.788-1.272l.014-.015A21.812,21.812,0,0,0,36,8.521c-.113-.039-.225-.085-.337-.124-.43-.157-.868-.3-1.309-.421-.356-.1-.714-.2-1.076-.283-.24-.057-.48-.107-.722-.154-.544-.107-1.091-.2-1.648-.259-.135-.015-.271-.024-.406-.037-.642-.061-1.29-.1-1.949-.1-.7,0-1.4.041-2.087.109-.563.059-1.116.148-1.67.25-.1.017-.2.028-.295.046A21.661,21.661,0,0,0,20.75,8.66v0a21.968,21.968,0,0,0,7.807,42.33,21.17,21.17,0,0,0,9.465-2.262,31.081,31.081,0,0,0,5.325,5.206,28.082,28.082,0,0,1-14.789,4.2A28.814,28.814,0,0,1,0,29.064Z" transform="translate(11 11)" fill="#f1f1f1"/>
      </g>
      <g transform="matrix(1, 0, 0, 1, 15331, 12019.86)" filter="url(#Union_12)">
        <path id="Union_12-2" data-name="Union 12" d="M33.119,29.062a29.3,29.3,0,0,1,5.426-17.033,19.883,19.883,0,0,1,5.309,4.738,22.136,22.136,0,0,0-3.72,12.3,21.546,21.546,0,1,0,43.086,0A21.766,21.766,0,0,0,61.676,7.139,21.167,21.167,0,0,0,52.2,9.388,30.892,30.892,0,0,0,46.893,4.2,28.016,28.016,0,0,1,61.676,0,28.815,28.815,0,0,1,90.233,29.062c0,16.052-12.785,29.063-28.557,29.065S33.122,45.114,33.119,29.062ZM0,29.064A28.858,28.858,0,0,1,26.347.1c.117-.009.232-.017.35-.024C27.312.028,27.931,0,28.557,0c.607,0,1.209.024,1.8.065.171.011.341.024.511.039.461.039.915.085,1.371.148.147.015.3.033.444.057.581.085,1.157.187,1.725.307L34.7.683c.477.109.949.226,1.418.358.162.043.325.091.485.139.459.139.912.285,1.362.443.1.037.2.07.3.1.539.2,1.068.415,1.591.644.128.054.252.117.38.174q.612.277,1.2.587c.142.074.286.146.426.222.489.261.971.535,1.444.826l.031.017A29.048,29.048,0,0,1,55.668,19.936l.011.035q.338,1.047.6,2.131c.008.039.016.078.025.121.161.674.3,1.352.41,2.041.011.063.022.122.032.18.107.683.188,1.373.247,2.071.011.141.019.283.032.424.049.7.083,1.411.083,2.126,0,.265-.013.529-.019.795h-.013a29.2,29.2,0,0,1-5.4,16.233,19.841,19.841,0,0,1-5.312-4.747,22.027,22.027,0,0,0,3.7-11.486H50.06c.006-.267.039-.528.041-.795,0-.678-.045-1.348-.1-2.007-.024-.215-.05-.433-.076-.641-.053-.45-.121-.892-.2-1.332-.042-.241-.085-.485-.138-.724-.094-.433-.205-.859-.325-1.28s-.249-.836-.4-1.251c-.1-.311-.214-.626-.335-.933-.144-.359-.3-.711-.46-1.059-.083-.18-.166-.361-.254-.537-.192-.387-.389-.773-.6-1.149l-.059-.1c-.25-.433-.511-.859-.788-1.272l.014-.015A21.812,21.812,0,0,0,36,8.521c-.113-.039-.225-.085-.337-.124-.43-.157-.868-.3-1.309-.421-.356-.1-.714-.2-1.076-.283-.24-.057-.48-.107-.722-.154-.544-.107-1.091-.2-1.648-.259-.135-.015-.271-.024-.406-.037-.642-.061-1.29-.1-1.949-.1-.7,0-1.4.041-2.087.109-.563.059-1.116.148-1.67.25-.1.017-.2.028-.295.046A21.661,21.661,0,0,0,20.75,8.66v0a21.968,21.968,0,0,0,7.807,42.33,21.17,21.17,0,0,0,9.465-2.262,31.081,31.081,0,0,0,5.325,5.206,28.082,28.082,0,0,1-14.789,4.2A28.814,28.814,0,0,1,0,29.064Z" transform="translate(11 11)" fill="#f1f1f1"/>
      </g>
    </g>
    <path id="Union_12-3" data-name="Union 12" d="M33.119,29.062a29.3,29.3,0,0,1,5.426-17.033,19.883,19.883,0,0,1,5.309,4.738,22.136,22.136,0,0,0-3.72,12.3,21.546,21.546,0,1,0,43.086,0A21.766,21.766,0,0,0,61.676,7.139,21.167,21.167,0,0,0,52.2,9.388,30.892,30.892,0,0,0,46.893,4.2,28.016,28.016,0,0,1,61.676,0,28.815,28.815,0,0,1,90.233,29.062c0,16.052-12.785,29.063-28.557,29.065S33.122,45.114,33.119,29.062ZM0,29.064A28.858,28.858,0,0,1,26.347.1c.117-.009.232-.017.35-.024C27.312.028,27.931,0,28.557,0c.607,0,1.209.024,1.8.065.171.011.341.024.511.039.461.039.915.085,1.371.148.147.015.3.033.444.057.581.085,1.157.187,1.725.307L34.7.683c.477.109.949.226,1.418.358.162.043.325.091.485.139.459.139.912.285,1.362.443.1.037.2.07.3.1.539.2,1.068.415,1.591.644.128.054.252.117.38.174q.612.277,1.2.587c.142.074.286.146.426.222.489.261.971.535,1.444.826l.031.017A29.048,29.048,0,0,1,55.668,19.936l.011.035q.338,1.047.6,2.131c.008.039.016.078.025.121.161.674.3,1.352.41,2.041.011.063.022.122.032.18.107.683.188,1.373.247,2.071.011.141.019.283.032.424.049.7.083,1.411.083,2.126,0,.265-.013.529-.019.795h-.013a29.2,29.2,0,0,1-5.4,16.233,19.841,19.841,0,0,1-5.312-4.747,22.027,22.027,0,0,0,3.7-11.486H50.06c.006-.267.039-.528.041-.795,0-.678-.045-1.348-.1-2.007-.024-.215-.05-.433-.076-.641-.053-.45-.121-.892-.2-1.332-.042-.241-.085-.485-.138-.724-.094-.433-.205-.859-.325-1.28s-.249-.836-.4-1.251c-.1-.311-.214-.626-.335-.933-.144-.359-.3-.711-.46-1.059-.083-.18-.166-.361-.254-.537-.192-.387-.389-.773-.6-1.149l-.059-.1c-.25-.433-.511-.859-.788-1.272l.014-.015A21.812,21.812,0,0,0,36,8.521c-.113-.039-.225-.085-.337-.124-.43-.157-.868-.3-1.309-.421-.356-.1-.714-.2-1.076-.283-.24-.057-.48-.107-.722-.154-.544-.107-1.091-.2-1.648-.259-.135-.015-.271-.024-.406-.037-.642-.061-1.29-.1-1.949-.1-.7,0-1.4.041-2.087.109-.563.059-1.116.148-1.67.25-.1.017-.2.028-.295.046A21.661,21.661,0,0,0,20.75,8.66v0a21.968,21.968,0,0,0,7.807,42.33,21.17,21.17,0,0,0,9.465-2.262,31.081,31.081,0,0,0,5.325,5.206,28.082,28.082,0,0,1-14.789,4.2A28.814,28.814,0,0,1,0,29.064Z" transform="translate(508 149.861)" fill="#8eae3f" opacity="0.7"/>
  </g>
</svg>
