<svg xmlns="http://www.w3.org/2000/svg" xmlns:xlink="http://www.w3.org/1999/xlink" width="89.021" height="89.025" viewBox="0 0 89.021 89.025">
  <defs>
    <filter id="Union_13" x="4" y="4" width="85.021" height="85.025" filterUnits="userSpaceOnUse">
      <feOffset dx="2" dy="2" input="SourceAlpha"/>
      <feGaussianBlur stdDeviation="3" result="blur"/>
      <feFlood flood-opacity="0.161"/>
      <feComposite operator="in" in2="blur"/>
      <feComposite in="SourceGraphic"/>
    </filter>
    <filter id="Union_14" x="0" y="0" width="85.021" height="85.025" filterUnits="userSpaceOnUse">
      <feOffset dx="-2" dy="-2" input="SourceAlpha"/>
      <feGaussianBlur stdDeviation="3" result="blur-2"/>
      <feFlood flood-color="#fff" flood-opacity="0.82"/>
      <feComposite operator="in" in2="blur-2"/>
      <feComposite in="SourceGraphic"/>
    </filter>
  </defs>
  <g id="Group_916" data-name="Group 916" transform="translate(-686.979 -134)">
    <g id="Group_874" data-name="Group 874" transform="translate(-14834 -11881)">
      <g transform="matrix(1, 0, 0, 1, 15520.98, 12015)" filter="url(#Union_13)">
        <path id="Union_13-2" data-name="Union 13" d="M31.218,67.027a4.173,4.173,0,0,1-4.167-3.77L25.3,41.894H23.038a2.1,2.1,0,0,1-2.078-2.359l1.906-14.87A4.163,4.163,0,0,1,27.03,20.95h2.291a2.111,2.111,0,0,1,1.483.612l2.705,2.705,2.706-2.705A2.107,2.107,0,0,1,37.7,20.95h2.3a4.172,4.172,0,0,1,4.163,3.77l1.9,14.811a2.065,2.065,0,0,1-.507,1.651,2.09,2.09,0,0,1-1.57.712H41.724L39.977,63.219a4.187,4.187,0,0,1-4.172,3.808Zm20.948-4.19A4.174,4.174,0,0,1,48,59.068L46.608,45.442a6.056,6.056,0,0,0,2.077-1.474A6.269,6.269,0,0,0,50.219,39l-1.9-14.761a8.145,8.145,0,0,0-1.09-3.15,3.949,3.949,0,0,1,.742-.139h2.3a2.108,2.108,0,0,1,1.479.612l2.705,2.705,2.706-2.705a2.107,2.107,0,0,1,1.482-.612h2.3A4.17,4.17,0,0,1,65.1,24.724L67,39.532a2.065,2.065,0,0,1-.507,1.651,2.09,2.09,0,0,1-1.57.712H62.668L60.926,59.03a4.187,4.187,0,0,1-4.172,3.807Zm-41.892,0a4.173,4.173,0,0,1-4.167-3.769L4.356,41.894H2.094A2.1,2.1,0,0,1,.016,39.535l1.906-14.87A4.163,4.163,0,0,1,6.086,20.95h2.3a2.108,2.108,0,0,1,1.479.612l2.705,2.705,2.706-2.705a2.109,2.109,0,0,1,1.483-.612h2.3a3.9,3.9,0,0,1,.7.134,7.738,7.738,0,0,0-1.043,3.049L16.8,39.008a6.049,6.049,0,0,0,3.619,6.43L19.033,59.03a4.186,4.186,0,0,1-4.172,3.807ZM46.021,8.5a8.5,8.5,0,1,1,8.5,8.5A8.5,8.5,0,0,1,46.021,8.5Zm-21,0a8.5,8.5,0,1,1,8.5,8.5A8.5,8.5,0,0,1,25.022,8.5ZM4.19,8.384a8.378,8.378,0,1,1,8.377,8.378A8.386,8.386,0,0,1,4.19,8.384Z" transform="translate(11 11)" fill="#f1f1f1"/>
      </g>
      <g transform="matrix(1, 0, 0, 1, 15520.98, 12015)" filter="url(#Union_14)">
        <path id="Union_14-2" data-name="Union 14" d="M31.218,67.027a4.173,4.173,0,0,1-4.167-3.77L25.3,41.894H23.038a2.1,2.1,0,0,1-2.078-2.359l1.906-14.87A4.163,4.163,0,0,1,27.03,20.95h2.291a2.111,2.111,0,0,1,1.483.612l2.705,2.705,2.706-2.705A2.107,2.107,0,0,1,37.7,20.95h2.3a4.172,4.172,0,0,1,4.163,3.77l1.9,14.811a2.065,2.065,0,0,1-.507,1.651,2.09,2.09,0,0,1-1.57.712H41.724L39.977,63.219a4.187,4.187,0,0,1-4.172,3.808Zm20.948-4.19A4.174,4.174,0,0,1,48,59.068L46.608,45.442a6.056,6.056,0,0,0,2.077-1.474A6.269,6.269,0,0,0,50.219,39l-1.9-14.761a8.145,8.145,0,0,0-1.09-3.15,3.949,3.949,0,0,1,.742-.139h2.3a2.108,2.108,0,0,1,1.479.612l2.705,2.705,2.706-2.705a2.107,2.107,0,0,1,1.482-.612h2.3A4.17,4.17,0,0,1,65.1,24.724L67,39.532a2.065,2.065,0,0,1-.507,1.651,2.09,2.09,0,0,1-1.57.712H62.668L60.926,59.03a4.187,4.187,0,0,1-4.172,3.807Zm-41.892,0a4.173,4.173,0,0,1-4.167-3.769L4.356,41.894H2.094A2.1,2.1,0,0,1,.016,39.535l1.906-14.87A4.163,4.163,0,0,1,6.086,20.95h2.3a2.108,2.108,0,0,1,1.479.612l2.705,2.705,2.706-2.705a2.109,2.109,0,0,1,1.483-.612h2.3a3.9,3.9,0,0,1,.7.134,7.738,7.738,0,0,0-1.043,3.049L16.8,39.008a6.049,6.049,0,0,0,3.619,6.43L19.033,59.03a4.186,4.186,0,0,1-4.172,3.807ZM46.021,8.5a8.5,8.5,0,1,1,8.5,8.5A8.5,8.5,0,0,1,46.021,8.5Zm-21,0a8.5,8.5,0,1,1,8.5,8.5A8.5,8.5,0,0,1,25.022,8.5ZM4.19,8.384a8.378,8.378,0,1,1,8.377,8.378A8.386,8.386,0,0,1,4.19,8.384Z" transform="translate(11 11)" fill="#f1f1f1"/>
      </g>
    </g>
    <path id="Union_14-3" data-name="Union 14" d="M31.218,67.027a4.173,4.173,0,0,1-4.167-3.77L25.3,41.894H23.038a2.1,2.1,0,0,1-2.078-2.359l1.906-14.87A4.163,4.163,0,0,1,27.03,20.95h2.291a2.111,2.111,0,0,1,1.483.612l2.705,2.705,2.706-2.705A2.107,2.107,0,0,1,37.7,20.95h2.3a4.172,4.172,0,0,1,4.163,3.77l1.9,14.811a2.065,2.065,0,0,1-.507,1.651,2.09,2.09,0,0,1-1.57.712H41.724L39.977,63.219a4.187,4.187,0,0,1-4.172,3.808Zm20.948-4.19A4.174,4.174,0,0,1,48,59.068L46.608,45.442a6.056,6.056,0,0,0,2.077-1.474A6.269,6.269,0,0,0,50.219,39l-1.9-14.761a8.145,8.145,0,0,0-1.09-3.15,3.949,3.949,0,0,1,.742-.139h2.3a2.108,2.108,0,0,1,1.479.612l2.705,2.705,2.706-2.705a2.107,2.107,0,0,1,1.482-.612h2.3A4.17,4.17,0,0,1,65.1,24.724L67,39.532a2.065,2.065,0,0,1-.507,1.651,2.09,2.09,0,0,1-1.57.712H62.668L60.926,59.03a4.187,4.187,0,0,1-4.172,3.807Zm-41.892,0a4.173,4.173,0,0,1-4.167-3.769L4.356,41.894H2.094A2.1,2.1,0,0,1,.016,39.535l1.906-14.87A4.163,4.163,0,0,1,6.086,20.95h2.3a2.108,2.108,0,0,1,1.479.612l2.705,2.705,2.706-2.705a2.109,2.109,0,0,1,1.483-.612h2.3a3.9,3.9,0,0,1,.7.134,7.738,7.738,0,0,0-1.043,3.049L16.8,39.008a6.049,6.049,0,0,0,3.619,6.43L19.033,59.03a4.186,4.186,0,0,1-4.172,3.807ZM46.021,8.5a8.5,8.5,0,1,1,8.5,8.5A8.5,8.5,0,0,1,46.021,8.5Zm-21,0a8.5,8.5,0,1,1,8.5,8.5A8.5,8.5,0,0,1,25.022,8.5ZM4.19,8.384a8.378,8.378,0,1,1,8.377,8.378A8.386,8.386,0,0,1,4.19,8.384Z" transform="translate(697.979 144.999)" fill="#8eae3f" opacity="0.7"/>
  </g>
</svg>
