<svg xmlns="http://www.w3.org/2000/svg" xmlns:xlink="http://www.w3.org/1999/xlink" width="104.309" height="90.591" viewBox="0 0 104.309 90.591">
  <defs>
    <filter id="Union_17" x="4" y="4" width="100.309" height="86.591" filterUnits="userSpaceOnUse">
      <feOffset dx="2" dy="2" input="SourceAlpha"/>
      <feGaussianBlur stdDeviation="3" result="blur"/>
      <feFlood flood-opacity="0.149"/>
      <feComposite operator="in" in2="blur"/>
      <feComposite in="SourceGraphic"/>
    </filter>
    <filter id="Union_18" x="0" y="0" width="100.309" height="86.591" filterUnits="userSpaceOnUse">
      <feOffset dx="-2" dy="-2" input="SourceAlpha"/>
      <feGaussianBlur stdDeviation="3" result="blur-2"/>
      <feFlood flood-color="#fff" flood-opacity="0.859"/>
      <feComposite operator="in" in2="blur-2"/>
      <feComposite in="SourceGraphic"/>
    </filter>
  </defs>
  <g id="Group_918" data-name="Group 918" transform="translate(-482.609 -133.508)">
    <g id="Group_876" data-name="Group 876" transform="translate(-17618 -11914)">
      <g transform="matrix(1, 0, 0, 1, 18100.61, 12047.51)" filter="url(#Union_17)">
        <path id="Union_17-2" data-name="Union 17" d="M9.431,68.591A9.426,9.426,0,0,1,0,59.16V32.992L38.514,45.818a7.511,7.511,0,0,0,2.641.481,7.083,7.083,0,0,0,2.435-.411l38.719-12.9V59.16a9.426,9.426,0,0,1-9.431,9.431Zm30.9-27.574L0,27.573V19.719a9.426,9.426,0,0,1,9.431-9.431h18V6.859A6.866,6.866,0,0,1,34.295,0H48.012a6.866,6.866,0,0,1,6.86,6.859v3.429H72.878a9.426,9.426,0,0,1,9.431,9.431v7.854L41.978,41.017a2.547,2.547,0,0,1-1.647,0Zm7.682-30.729V6.859H34.295v3.429Z" transform="translate(11 11)" fill="#f1f1f1"/>
      </g>
      <g transform="matrix(1, 0, 0, 1, 18100.61, 12047.51)" filter="url(#Union_18)">
        <path id="Union_18-2" data-name="Union 18" d="M9.431,68.591A9.426,9.426,0,0,1,0,59.16V32.992L38.514,45.818a7.511,7.511,0,0,0,2.641.481,7.083,7.083,0,0,0,2.435-.411l38.719-12.9V59.16a9.426,9.426,0,0,1-9.431,9.431Zm30.9-27.574L0,27.573V19.719a9.426,9.426,0,0,1,9.431-9.431h18V6.859A6.866,6.866,0,0,1,34.295,0H48.012a6.866,6.866,0,0,1,6.86,6.859v3.429H72.878a9.426,9.426,0,0,1,9.431,9.431v7.854L41.978,41.017a2.547,2.547,0,0,1-1.647,0Zm7.682-30.729V6.859H34.295v3.429Z" transform="translate(11 11)" fill="#f1f1f1"/>
      </g>
    </g>
    <path id="Union_18-3" data-name="Union 18" d="M9.431,68.591A9.426,9.426,0,0,1,0,59.16V32.992L38.514,45.818a7.511,7.511,0,0,0,2.641.481,7.083,7.083,0,0,0,2.435-.411l38.719-12.9V59.16a9.426,9.426,0,0,1-9.431,9.431Zm30.9-27.574L0,27.573V19.719a9.426,9.426,0,0,1,9.431-9.431h18V6.859A6.866,6.866,0,0,1,34.295,0H48.012a6.866,6.866,0,0,1,6.86,6.859v3.429H72.878a9.426,9.426,0,0,1,9.431,9.431v7.854L41.978,41.017a2.547,2.547,0,0,1-1.647,0Zm7.682-30.729V6.859H34.295v3.429Z" transform="translate(493.609 144.508)" fill="#8eae3f" opacity="0.7"/>
  </g>
</svg>
