<svg id="Group_926" data-name="Group 926" xmlns="http://www.w3.org/2000/svg" width="36.237" height="29.617" viewBox="0 0 36.237 29.617">
  <path id="Path_6398" data-name="Path 6398" d="M44.137,86.833l-6.76-6.76-.331-.331.293-.366a12.413,12.413,0,0,0,2.017-3.6l-1.828-1.125a10.458,10.458,0,1,1,.347-4.7l2.211,1.361A12.544,12.544,0,1,0,27.544,84.087a12.4,12.4,0,0,0,7.647-2.6l.364-.28.324.326,6.781,6.781a1.045,1.045,0,1,0,1.477-1.477Z" transform="translate(-15 -59)" fill="#fff"/>
  <path id="Path_6399" data-name="Path 6399" d="M87.807,114.154l-13.6-8.37-5.139,7.476a1.132,1.132,0,0,1-1.866-1.283l6.359-9.249,13.576,8.354,4.969-7.454a1.132,1.132,0,0,1,1.884,1.256Z" transform="translate(-57.94 -95.108)" fill="#fff"/>
</svg>
