<svg id="noun_Partnerships_729749" xmlns="http://www.w3.org/2000/svg" width="39.948" height="26.164" viewBox="0 0 39.948 26.164">
  <path id="Path_6391" data-name="Path 6391" d="M65.417,67.1,62.3,63.181a2.879,2.879,0,0,0-3.8-.644h0L55.9,64.157a2.758,2.758,0,0,1-2.77.078l-2.068-1.151a4.387,4.387,0,0,0-4.526.156l-.488.312-.468-.293a5.445,5.445,0,0,0-5.267-.234l-.722.371a4.761,4.761,0,0,1-4.409-.117l-.488-.273a3.518,3.518,0,0,0-4.35.741l-3.453,3.921a2.859,2.859,0,0,0-.722,2.146A2.9,2.9,0,0,0,27.2,71.823l3.082,2.595L28.9,75.9a2.859,2.859,0,0,0-.761,2.029,2.783,2.783,0,0,0,.9,1.97h0a3.021,3.021,0,0,0,1.327.7A2.822,2.822,0,0,0,31,83.841h0a2.813,2.813,0,0,0,1.931.761,2.607,2.607,0,0,0,1.014-.2,2.832,2.832,0,0,0,.819,1.444h0a2.813,2.813,0,0,0,1.931.761,2.915,2.915,0,0,0,1.444-.39A2.621,2.621,0,0,0,38.9,87.45h0a2.813,2.813,0,0,0,1.931.761,2.765,2.765,0,0,0,2.068-.9l1.21-1.288,1.912,1.6a2.725,2.725,0,0,0,1.7.624,2.64,2.64,0,0,0,1.97-.878,2.386,2.386,0,0,0,.566-1.014l.585.527a2.9,2.9,0,0,0,4.019-.2,2.85,2.85,0,0,0,.722-1.5A2.76,2.76,0,0,0,59.1,81.87a2.54,2.54,0,0,0,1.483-.839,2.641,2.641,0,0,0,.683-1.951,2.577,2.577,0,0,0-.917-1.834l-.215-.2L65.3,71.18A3.16,3.16,0,0,0,65.417,67.1ZM30.087,78.749a1.327,1.327,0,0,1-.41-.9,1.278,1.278,0,0,1,.351-.936l3.063-3.277a1.274,1.274,0,0,1,1.814-.059,1.327,1.327,0,0,1,.41.9,1.308,1.308,0,0,1-.351.936L31.9,78.69a1.289,1.289,0,0,1-.9.41,1.35,1.35,0,0,1-.917-.351Zm1.951,3.941a1.327,1.327,0,0,1-.41-.9,1.278,1.278,0,0,1,.351-.936l4.194-4.487a1.3,1.3,0,0,1,1.892,1.775l-.858.917h0L36.037,80.31l-2.185,2.322A1.289,1.289,0,0,1,32.038,82.69ZM35.8,84.7a1.327,1.327,0,0,1-.41-.9,1.278,1.278,0,0,1,.351-.936l1.424-1.522,1.171-1.249a1.3,1.3,0,0,1,1.892,1.775l-.332.351-1.131,1.21h0l-1.132,1.21A1.314,1.314,0,0,1,35.8,84.7Zm5.989,1.541A1.3,1.3,0,0,1,39.9,84.465L41.363,82.9h0a1.3,1.3,0,0,1,1.892,1.775Zm17.675-6.262a1.1,1.1,0,0,1-.78.371,1.148,1.148,0,0,1-.819-.293L52.6,75.14a.773.773,0,0,0-1.053,1.131l5.716,5.384a1.245,1.245,0,0,1,.078,1.717,1.214,1.214,0,0,1-1.736.078l-.917-.839-.02-.02L50.22,78.573a.774.774,0,1,0-1.034,1.151l4.448,4.038a1.355,1.355,0,0,1,.429.917,1.4,1.4,0,0,1-.351.975,1.344,1.344,0,0,1-1.873.1l-2.38-2.107-.02-.02L47.2,81.558a.774.774,0,1,0-1.034,1.151l2.282,2.029a1.136,1.136,0,0,1,.371.761,1.026,1.026,0,0,1-.293.8,1.1,1.1,0,0,1-1.541.1l-2.029-1.7a2.833,2.833,0,0,0-2.77-3.765h-.1a2.724,2.724,0,0,0-.9-2.048,2.841,2.841,0,0,0-1.424-.722,2.78,2.78,0,0,0-.741-3,2.855,2.855,0,0,0-2.2-.741h0a2.708,2.708,0,0,0-.9-1.97,2.816,2.816,0,0,0-4,.137l-.624.683-3.141-2.634a1.344,1.344,0,0,1-.488-.936A1.481,1.481,0,0,1,28,68.683l3.473-3.941a1.965,1.965,0,0,1,2.439-.41l.488.273a6.236,6.236,0,0,0,5.833.156l.741-.371a3.911,3.911,0,0,1,3.629.078l-1.483.956a2.914,2.914,0,0,0,2.887,5.053l1.131-.566a2.411,2.411,0,0,1,2.634.312l8.72,7.452h0l.819.7a1.084,1.084,0,0,1,.39.78A.921.921,0,0,1,59.467,79.978Zm4.7-9.832-5.189,5.892-8.135-6.964a3.9,3.9,0,0,0-2.556-.936,3.842,3.842,0,0,0-1.775.429l-1.131.566a1.37,1.37,0,0,1-1.951-1.5,1.44,1.44,0,0,1,.6-.9l3.355-2.2a2.811,2.811,0,0,1,2.946-.1L52.4,65.581a4.255,4.255,0,0,0,4.331-.117l2.595-1.619a1.339,1.339,0,0,1,1.775.312l3.121,3.921A1.621,1.621,0,0,1,64.169,70.146Z" transform="translate(-26.158 -62.086)" fill="#fff"/>
</svg>
