<svg xmlns="http://www.w3.org/2000/svg" xmlns:xlink="http://www.w3.org/1999/xlink" width="290" height="321.313" viewBox="0 0 290 321.313">
  <defs>
    <clipPath id="clip-path">
      <rect id="Rectangle_170" data-name="Rectangle 170" width="290" height="321.313" rx="12" fill="#8eae3f"/>
    </clipPath>
  </defs>
  <g id="Group_1417" data-name="Group 1417" transform="translate(5289 18730.313)">
    <rect id="Rectangle_1127" data-name="Rectangle 1127" width="289" height="321" rx="12" transform="translate(-5289 -18730)" fill="#fff"/>
    <g id="Mask_Group_2" data-name="Mask Group 2" transform="translate(-5289 -18730.313)" clip-path="url(#clip-path)">
      <g id="Group_294" data-name="Group 294" transform="translate(-81.613 33.876)">
        <g id="Group_293" data-name="Group 293" transform="translate(0 21.906)" opacity="0.3">
          <path id="Path_368" data-name="Path 368" d="M2690.669-511.473a77.159,77.159,0,0,1-20.429,52.008,61.893,61.893,0,0,1-16.052-10.179,60.08,60.08,0,0,0,17.215-41.829,60.08,60.08,0,0,0-17.215-41.829q-1.848-1.91-3.854-3.678a67.147,67.147,0,0,0-16.06-10.475c-1.734-.81-3.509-1.556-5.326-2.218A70.655,70.655,0,0,0,2604.494-574c-36.895,0-66.908,28.049-66.908,62.529s30.014,62.528,66.908,62.528a70.657,70.657,0,0,0,24.454-4.328,91.035,91.035,0,0,0,16.06,12.861,90.406,90.406,0,0,1-40.514,9.472c-47.518,0-86.174-36.126-86.174-80.533s38.656-80.533,86.174-80.533a90.405,90.405,0,0,1,40.514,9.472q2.724,1.36,5.325,2.894a85.873,85.873,0,0,1,16.06,12.186q1.992,1.929,3.846,3.974A77.159,77.159,0,0,1,2690.669-511.473Z" transform="translate(-2518.32 592.006)" fill="#9d9e96"/>
          <path id="Path_369" data-name="Path 369" d="M3700.948-511.473c0,44.408-38.656,80.533-86.174,80.533a90.407,90.407,0,0,1-40.514-9.472q-2.725-1.36-5.326-2.894a85.87,85.87,0,0,1-16.06-12.186q-1.992-1.929-3.846-3.974a77.157,77.157,0,0,1-20.429-52.008,77.156,77.156,0,0,1,20.429-52.009A61.9,61.9,0,0,1,3565.08-553.3a60.08,60.08,0,0,0-17.215,41.829,60.08,60.08,0,0,0,17.215,41.829q1.847,1.91,3.853,3.678a67.161,67.161,0,0,0,16.06,10.475c1.734.81,3.51,1.556,5.326,2.219a70.656,70.656,0,0,0,24.454,4.328c36.895,0,66.908-28.049,66.908-62.528S3651.668-574,3614.773-574a70.653,70.653,0,0,0-24.454,4.328,91.049,91.049,0,0,0-16.06-12.861,90.407,90.407,0,0,1,40.514-9.472C3662.292-592.006,3700.948-555.88,3700.948-511.473Z" transform="translate(-3436.92 592.006)" fill="#9d9e96"/>
        </g>
        <ellipse id="Ellipse_33" data-name="Ellipse 33" cx="8" cy="7.699" rx="8" ry="7.699" transform="translate(329.613)" fill="#9d9e96" opacity="0.51"/>
        <ellipse id="Ellipse_36" data-name="Ellipse 36" cx="8" cy="7.699" rx="8" ry="7.699" transform="translate(124.613 189.913)" fill="#9d9e96" opacity="0.25"/>
        <ellipse id="Ellipse_34" data-name="Ellipse 34" cx="68" cy="68.823" rx="68" ry="68.823" transform="translate(171.613 121.551)" fill="#9d9e96" opacity="0.08"/>
        <ellipse id="Ellipse_35" data-name="Ellipse 35" cx="34" cy="31.823" rx="34" ry="31.823" transform="translate(195.613 15.398)" fill="#fff" opacity="0.07"/>
        <path id="Path_370" data-name="Path 370" d="M-8396.463-990v80.7" transform="translate(8729.97 1196.286)" fill="none" stroke="#9d9e96" stroke-linecap="round" stroke-width="12" opacity="0.19"/>
        <path id="Path_371" data-name="Path 371" d="M-8396.463-990v80.7" transform="translate(8754.136 1196.286)" fill="none" stroke="#9d9e96" stroke-linecap="round" stroke-width="12" opacity="0.1"/>
      </g>
    </g>
  </g>
</svg>
